<?xml version="1.0" encoding="iso-8859-1"?>
<!-- Generator: Adobe Illustrator 19.0.0, SVG Export Plug-In . SVG Version: 6.00 Build 0)  -->
<!-- License: CC0. Made by SVG Repo: https://www.svgrepo.com/svg/219925/expresso -->
<svg version="1.1" id="Layer_1" xmlns="http://www.w3.org/2000/svg" xmlns:xlink="http://www.w3.org/1999/xlink" x="0px" y="0px"
	 viewBox="0 0 511.999 511.999" style="enable-background:new 0 0 511.999 511.999;" xml:space="preserve">
<path style="fill:#A1A1A1;" d="M426.832,127.425l3.956-13.914c0.329-1.159,0.496-2.356,0.496-3.561V62.294
	c0-7.19-5.828-13.019-13.018-13.019H92.802c-7.19,0-13.019,5.828-13.019,13.019v46.362c0,1.199,0.165,2.391,0.492,3.545
	l77.619,274.255h195.278l16.289-57.281h40.993c55.993,0,101.544-45.553,101.544-101.544C512,177.214,475.063,135.28,426.832,127.425
	z M410.456,290.118h-29.887l35.464-124.716c31.852,2.833,56.912,29.651,56.912,62.227
	C472.944,262.085,444.912,290.118,410.456,290.118z"/>
<path style="fill:#D6D6D6;" d="M255.535,49.276H92.804c-7.19,0-13.019,5.828-13.019,13.019v46.362c0,1.199,0.165,2.391,0.492,3.545
	l77.619,274.255h97.639V49.276z"/>
<path style="fill:#625F69;" d="M491.541,370.441H19.528C8.743,370.441,0,379.184,0,389.969c0,10.785,8.743,19.528,19.528,19.528
	h53.384l6.809,12.832c13.188,24.855,39.024,40.394,67.161,40.394h108.653h108.652c28.137,0,53.973-15.539,67.161-40.394
	l6.809-12.832h53.384c10.785,0,19.528-8.743,19.528-19.528C511.068,379.184,502.326,370.441,491.541,370.441z"/>
<path style="fill:#827E8C;" d="M19.528,370.441C8.743,370.441,0,379.184,0,389.969c0,10.785,8.743,19.528,19.528,19.528h53.384
	l6.809,12.832c13.188,24.855,39.024,40.394,67.161,40.394h108.653v-53.226v-39.056H19.528z"/>
</svg>
