<?xml version="1.0" encoding="iso-8859-1"?>
<!-- Generator: Adobe Illustrator 19.0.0, SVG Export Plug-In . SVG Version: 6.00 Build 0)  -->
<!-- License: CC0. Made by SVG Repo: https://www.svgrepo.com/svg/219947/latte -->
<svg version="1.1" id="Layer_1" xmlns="http://www.w3.org/2000/svg" xmlns:xlink="http://www.w3.org/1999/xlink" x="0px" y="0px"
	 viewBox="0 0 512.001 512.001" style="enable-background:new 0 0 512.001 512.001;" xml:space="preserve">
<path style="fill:#A1A1A1;" d="M430.293,144.392h-28.992v-33.737H241.118H81.499v113.864c0,88.213,71.511,159.725,159.725,159.725
	h0.352c57.85,0,108.515-30.755,136.54-76.805c1.189,0.241,2.419,0.369,3.68,0.369h48.498c45.054,0,81.708-36.654,81.708-81.708
	S475.347,144.392,430.293,144.392z M430.293,270.908H394.45c4.449-14.683,6.851-30.254,6.851-46.388v-43.226h28.992
	c24.707,0,44.808,20.101,44.808,44.808S455,270.908,430.293,270.908z"/>
<path style="fill:#F3A938;" d="M188.1,110.655c0-29.436-23.863-53.3-53.3-53.3s-53.301,23.862-53.301,53.3"/>
<g>
	<path style="fill:#DE9833;" d="M348,57.354c-29.436,0-53.3,23.863-53.3,53.3h106.601C401.3,81.218,377.436,57.354,348,57.354z"/>
	<path style="fill:#DE9833;" d="M241.399,57.354c-29.436,0-53.3,23.863-53.3,53.3H294.7C294.7,81.218,270.837,57.354,241.399,57.354
		z"/>
</g>
<path style="fill:#F3A938;" d="M241.118,110.655l0.282-53.3c-29.436,0-53.3,23.863-53.3,53.3"/>
<path style="fill:#D6D6D6;" d="M241.575,384.243h-0.352c-88.213,0-159.725-71.511-159.725-159.725V110.655h159.619
	C241.118,110.655,241.225,384.243,241.575,384.243z"/>
<path style="fill:#625F69;" d="M464.414,367.458H18.45c-10.189,0-18.45,8.261-18.45,18.45s8.261,18.45,18.45,18.45h50.438
	l6.433,12.124c12.46,23.483,36.871,38.165,63.455,38.165h102.656h102.656c26.584,0,50.995-14.681,63.455-38.165l6.433-12.124h50.438
	c10.189,0,18.45-8.261,18.45-18.45S474.603,367.458,464.414,367.458z"/>
<path style="fill:#827E8C;" d="M18.45,367.458c-10.189,0-18.45,8.261-18.45,18.45s8.261,18.45,18.45,18.45h50.438l6.433,12.124
	c12.46,23.483,36.871,38.165,63.455,38.165h102.656v-50.289v-36.9H18.45z"/>
</svg>
