<svg width="512" height="512" xmlns="http://www.w3.org/2000/svg" xml:space="preserve" version="1.1">

 <g>
  <title>Layer 1</title>
  <path id="svg_3" fill="#A1A1A1" d="m425.24,215.895l-16.701,0l0,-21.678c0,-6.869 -5.568,-12.438 -12.438,-12.438l-298.148,0c-6.869,0 -12.438,5.568 -12.438,12.438l0,102.7c0,89.2 72.311,161.511 161.511,161.511l0,0c58.339,0 109.449,-30.934 137.835,-77.291l40.379,0c45.558,0 82.622,-37.064 82.622,-82.622c0,-45.557 -37.065,-82.62 -82.622,-82.62zm0,127.93l-23.629,0c4.499,-14.846 6.928,-30.592 6.928,-46.907l0,-43.71l16.701,0c24.983,0 45.309,20.326 45.309,45.308c0,24.983 -20.326,45.309 -45.309,45.309z"/>
  <path id="svg_4" fill="#D6D6D6" d="m247.027,458.428l0,0c-89.2,0 -161.511,-72.311 -161.511,-161.511l0,-102.7c0,-6.869 5.568,-12.438 12.438,-12.438l149.074,0l0,276.649l-0.001,0z"/>
  <path id="svg_5" fill="#625F69" d="m473.746,423.836l-450.952,0c-10.303,0 -18.656,8.353 -18.656,18.656c0,10.303 8.353,18.656 18.656,18.656l51.002,0l6.506,12.26c12.599,23.747 37.283,38.592 64.164,38.592l103.804,0l103.804,0c26.881,0 51.565,-14.846 64.164,-38.592l6.505,-12.26l51.002,0c10.303,0 18.656,-8.353 18.656,-18.656c0.002,-10.303 -8.351,-18.656 -18.655,-18.656z"/>
  <path id="svg_6" fill="#827E8C" d="m248.271,461.149l0,-37.313l-225.477,0c-10.303,0 -18.656,8.353 -18.656,18.656c0,10.303 8.353,18.656 18.656,18.656l51.002,0l6.506,12.26c12.599,23.747 37.283,38.592 64.164,38.592l103.804,0l0,-50.851l0.001,0z"/>
  <g id="svg_13">
   <path id="svg_1" fill="#573024" d="m248.238,89.709c-2.823,-20.171 -13.13,-40.033 -29.023,-55.925c-15.892,-15.893 -35.753,-26.2 -55.925,-29.024c-21.799,-3.048 -42.257,3.158 -56.13,17.032c-13.875,13.874 -20.083,34.334 -17.032,56.13c2.823,20.171 13.13,40.033 29.023,55.926c15.893,15.892 35.754,26.199 55.925,29.022c3.644,0.51 7.25,0.761 10.795,0.761c17.659,0 33.782,-6.239 45.336,-17.793c13.875,-13.873 20.082,-34.332 17.031,-56.129zm-55.407,-29.54c12.022,12.023 18.683,27.077 18.913,39.825l-58.73,-58.73c12.746,0.231 27.796,6.884 39.817,18.905zm-47.295,47.295c-10.046,-10.047 -16.772,-22.699 -18.454,-34.713c-0.199,-1.424 -0.363,-3.15 -0.397,-5.048l58.616,58.616c-1.9,-0.034 -3.626,-0.199 -5.052,-0.399c-12.014,-1.684 -24.667,-8.41 -34.713,-18.456z"/>
   <path id="svg_2" fill="#83432D" d="m166.049,121.72c-7.315,-3.266 -14.398,-8.142 -20.513,-14.256c-10.046,-10.047 -16.772,-22.699 -18.454,-34.713c-0.199,-1.424 -0.363,-3.15 -0.397,-5.048l39.364,39.364l0,-52.769l-13.035,-13.035c4.162,0.076 8.568,0.848 13.035,2.256l0,-38.307c-0.919,-0.16 -1.837,-0.321 -2.759,-0.45c-21.799,-3.048 -42.257,3.158 -56.13,17.032c-13.875,13.873 -20.083,34.333 -17.032,56.129c2.823,20.171 13.13,40.033 29.023,55.926c13.512,13.512 29.896,22.966 46.897,27.236l0.001,-39.365l0,0z"/>
  </g>
  <g id="svg_16">
   <path id="svg_14" fill="#573024" d="m415.238,92.709c-2.823,-20.171 -13.13,-40.033 -29.023,-55.925c-15.892,-15.893 -35.753,-26.2 -55.925,-29.024c-21.799,-3.048 -42.257,3.158 -56.13,17.032c-13.875,13.874 -20.083,34.334 -17.032,56.13c2.823,20.171 13.13,40.033 29.023,55.926c15.893,15.892 35.754,26.199 55.925,29.022c3.644,0.51 7.25,0.761 10.795,0.761c17.659,0 33.782,-6.239 45.336,-17.793c13.875,-13.873 20.082,-34.332 17.031,-56.129zm-55.407,-29.54c12.022,12.023 18.683,27.077 18.913,39.825l-58.73,-58.73c12.746,0.231 27.796,6.884 39.817,18.905zm-47.295,47.295c-10.046,-10.047 -16.772,-22.699 -18.454,-34.713c-0.199,-1.424 -0.363,-3.15 -0.397,-5.048l58.616,58.616c-1.9,-0.034 -3.626,-0.199 -5.052,-0.399c-12.014,-1.684 -24.667,-8.41 -34.713,-18.456z"/>
   <path id="svg_15" fill="#83432D" d="m333.049,124.72c-7.315,-3.266 -14.398,-8.142 -20.513,-14.256c-10.046,-10.047 -16.772,-22.699 -18.454,-34.713c-0.199,-1.424 -0.363,-3.15 -0.397,-5.048l39.364,39.364l0,-52.769l-13.035,-13.035c4.162,0.076 8.568,0.848 13.035,2.256l0,-38.307c-0.919,-0.16 -1.837,-0.321 -2.759,-0.45c-21.799,-3.048 -42.257,3.158 -56.13,17.032c-13.875,13.873 -20.083,34.333 -17.032,56.129c2.823,20.171 13.13,40.033 29.023,55.926c13.512,13.512 29.896,22.966 46.897,27.236l0.001,-39.365l0,0z"/>
  </g>
 </g>
</svg>