<?xml version="1.0" encoding="iso-8859-1"?>
<!-- Generator: Adobe Illustrator 19.0.0, SVG Export Plug-In . SVG Version: 6.00 Build 0)  -->
<!-- License: CC0. Made by SVG Repo: https://www.svgrepo.com/svg/219927/coffee-cup -->
<svg version="1.1" id="Layer_1" xmlns="http://www.w3.org/2000/svg" xmlns:xlink="http://www.w3.org/1999/xlink" x="0px" y="0px"
	 viewBox="0 0 511.998 511.998" style="enable-background:new 0 0 511.998 511.998;" xml:space="preserve">
<path style="fill:#625F69;" d="M409.214,194.549h-7.366c-0.004,0-0.007,0-0.01,0H94.531c-6.789,0-12.292,5.503-12.292,12.292v43.278
	c0,1.457,0.259,2.902,0.765,4.269l72.989,197.071h184.385l24.431-65.556c1.24,0.263,2.524,0.407,3.841,0.407h40.565
	c52.868,0,95.88-43.011,95.88-95.88S462.082,194.549,409.214,194.549z M409.214,349.432H378.4l34.958-93.804
	c0.511-1.373,0.774-2.827,0.774-4.292v-19.69c30.24,2.509,54.086,27.905,54.086,58.782
	C468.218,322.965,441.749,349.432,409.214,349.432z"/>
<path style="fill:#827E8C;" d="M248.185,451.459h-92.192L83.004,254.388c-0.506-1.367-0.766-2.812-0.766-4.269v-43.278
	c0-6.789,5.503-12.292,12.292-12.292h153.654V451.459z"/>
<path style="fill:#A1A1A1;" d="M471.028,424.864H25.342c-10.183,0-18.438,8.256-18.438,18.439s8.256,18.438,18.438,18.438h50.406
	l6.43,12.117c12.452,23.469,36.847,38.141,63.415,38.141h102.592h102.592c26.567,0,50.963-14.672,63.415-38.141l6.429-12.117h50.406
	c10.183,0,18.438-8.256,18.438-18.438S481.211,424.864,471.028,424.864z"/>
<path style="fill:#D6D6D6;" d="M248.185,461.741v-36.877H25.342c-10.183,0-18.438,8.256-18.438,18.439s8.256,18.438,18.438,18.438
	h50.406l6.43,12.117c12.452,23.469,36.847,38.141,63.415,38.141h102.592L248.185,461.741z"/>
<path style="fill:#F3A938;" d="M213.975,155.807c-4.59,0-9.144-1.962-12.312-5.763c-12.752-15.303-28.958-52.154,0.98-82.091
	c4.543-4.543,10.13-12.216,6.208-26.334c-2.49-8.97-7.528-15.774-7.577-15.839c-5.394-7.012-4.081-17.065,2.929-22.459
	s17.065-4.081,22.459,2.93c12.479,16.222,28.253,54.73-1.369,84.352c-7.142,7.142-9.136,14.999-6.274,24.727
	c2.355,8.006,7.206,14.151,7.254,14.207c5.662,6.795,4.745,16.893-2.052,22.556C221.227,154.59,217.591,155.807,213.975,155.807z"/>
<path style="fill:#DE9833;" d="M298.633,155.807c-4.59,0-9.144-1.962-12.312-5.763c-12.752-15.303-28.958-52.154,0.98-82.091
	c4.543-4.543,10.13-12.216,6.208-26.334c-2.49-8.97-7.528-15.774-7.577-15.839c-5.394-7.012-4.081-17.065,2.929-22.459
	c7.012-5.394,17.067-4.081,22.459,2.93c12.479,16.222,28.253,54.73-1.369,84.352c-7.142,7.142-9.136,14.999-6.274,24.727
	c2.354,8.006,7.206,14.151,7.252,14.207c5.662,6.795,4.745,16.893-2.052,22.556C305.883,154.59,302.247,155.807,298.633,155.807z"/>
</svg>
