<?xml version="1.0" encoding="iso-8859-1"?>
<!-- Generator: Adobe Illustrator 19.0.0, SVG Export Plug-In . SVG Version: 6.00 Build 0)  -->
<!-- License: CC0. Made by SVG Repo: https://www.svgrepo.com/svg/219929/cappuccino -->
<svg version="1.1" id="Layer_1" xmlns="http://www.w3.org/2000/svg" xmlns:xlink="http://www.w3.org/1999/xlink" x="0px" y="0px"
	 viewBox="0 0 512 512" style="enable-background:new 0 0 512 512;" xml:space="preserve">
<path style="fill:#A1A1A1;" d="M428.995,193.433h-21.861v-34.274H82.25v115.673c0,89.615,72.648,162.263,162.263,162.263h0.357
	c58.763,0,110.229-31.238,138.701-78.012c1.181,0.234,2.4,0.361,3.651,0.361h41.771c45.769,0,83.005-37.237,83.005-83.006
	C512,230.67,474.763,193.433,428.995,193.433z M428.995,321.958h-28.821c4.52-14.915,6.96-30.734,6.96-47.126V230.92h21.861
	c25.098,0,45.519,20.42,45.519,45.519C474.513,301.538,454.093,321.958,428.995,321.958z"/>
<path style="fill:#D6D6D6;" d="M244.871,437.096h-0.357c-89.615,0-162.263-72.648-162.263-162.263V159.159h162.442
	C244.692,159.159,244.513,437.096,244.871,437.096z"/>
<path style="fill:#DE9833;" d="M407.134,159.159c0-51.11-41.832-92.544-93.434-92.544c-12.057,0-23.568,2.287-34.149,6.405
	c-20.956-19.433-49.009-31.319-79.841-31.319c-64.87,0-117.458,52.587-117.458,117.458"/>
<rect x="82.25" y="159.155" style="fill:#8E572E;" width="324.883" height="77.156"/>
<polygon style="fill:#AF6A3A;" points="244.692,159.159 82.25,159.159 82.25,236.315 244.657,236.315 "/>
<path style="fill:#F3A938;" d="M82.25,159.159c0-64.87,52.587-117.458,117.458-117.458c16.004,0,31.259,3.203,45.16,9.001
	l-0.176,108.457H82.25z"/>
<path style="fill:#625F69;" d="M471.794,381.724H18.743C8.392,381.724,0,390.116,0,400.467c0,10.351,8.392,18.743,18.743,18.743
	h51.239l6.535,12.317c12.658,23.856,37.457,38.771,64.463,38.771h104.288h104.288c27.007,0,51.805-14.915,64.463-38.771
	l6.535-12.317h51.239c10.351,0,18.743-8.392,18.743-18.743C490.536,390.116,482.146,381.724,471.794,381.724z"/>
<path style="fill:#827E8C;" d="M18.743,381.724C8.392,381.724,0,390.116,0,400.467c0,10.351,8.392,18.743,18.743,18.743h51.239
	l6.535,12.317c12.658,23.856,37.457,38.771,64.463,38.771h104.288v-51.088v-37.487H18.743z"/>
</svg>
