<svg width="44" height="44" viewBox="0 0 44 44" fill="none" xmlns="http://www.w3.org/2000/svg">
<path d="M10.0304 22.5094C10.5142 24.2099 11.1733 25.8555 11.9973 27.4196C12.3736 28.1122 12.7499 28.8047 13.4332 29.241C13.5516 29.3154 13.682 29.3686 13.8187 29.398C14.8252 29.6127 15.377 28.8024 15.7325 28.0614C16.263 26.8987 16.6917 25.6923 17.0137 24.4555C17.076 24.2247 17.136 23.9938 17.196 23.763C17.3115 23.322 17.4269 22.8765 17.5262 22.431L21.9677 10.5652C22.8903 9.33647 24.0864 8.33939 25.4611 7.65301C26.8358 6.96663 28.3516 6.60979 29.8881 6.61078C32.1008 6.59716 34.2521 7.33815 35.9872 8.71152C38.8913 10.9092 40.6204 15.2377 40.6204 15.2377C40.8725 15.8012 41.0022 16.4117 41.0013 17.0291C41.0001 17.6008 40.8863 18.1667 40.6663 18.6945C40.4465 19.2223 40.1247 19.7016 39.7196 20.105C39.3145 20.5084 38.8338 20.8281 38.3052 21.0458C37.7765 21.2635 37.21 21.3749 36.6382 21.3737C36.0024 21.3732 35.3743 21.233 34.7988 20.963C34.223 20.6929 33.7138 20.2996 33.307 19.8108L33.2655 19.76C32.9864 19.3832 32.7537 18.9739 32.5729 18.5411C32.3335 17.9979 32.0653 17.4677 31.7696 16.9529C31.6126 16.6874 31.4371 16.4358 31.2571 16.1865C31.1015 15.9636 30.9175 15.7618 30.71 15.5862C30.3014 15.2561 29.7866 15.1245 29.3064 15.4085C29.2833 15.4218 29.2609 15.4364 29.2395 15.4523C28.7454 15.7917 28.3992 16.4773 28.1591 17.0037C27.4665 18.495 27.0695 20.0232 26.677 21.593C26.6031 21.8954 26.5293 22.1978 26.46 22.5025L24.6248 28.5046L22.037 34.2112C21.1105 35.4068 19.9248 36.3766 18.5693 37.0477C17.2138 37.7185 15.7236 38.0734 14.2111 38.0849C7.92508 38.2188 4.9425 32.5445 4.9425 32.5445C1.36202 26.6717 0.307031 18.9243 0.0554039 16.4473C0.00230832 15.9325 3.00786e-07 15.6255 3.00786e-07 15.6255C-0.00029124 14.8496 0.211358 14.0884 0.612098 13.424C1.01284 12.7596 1.58744 12.2173 2.27388 11.8557C2.98364 11.4961 3.77347 11.3236 4.56854 11.3548C5.30823 11.3857 6.02793 11.6041 6.66005 11.9896C7.15123 12.2836 7.57578 12.6767 7.90661 13.1438C8.49759 13.9841 8.63148 15.0299 8.74922 16.0295C8.99369 18.2216 9.42226 20.3892 10.0304 22.5094Z" fill="url(#paint0_linear_19536_1442)"/>
<path d="M10.0304 22.5094C10.5142 24.2099 11.1733 25.8555 11.9973 27.4196C12.3736 28.1122 12.7499 28.8047 13.4332 29.241C13.5516 29.3154 13.682 29.3686 13.8187 29.398C14.8252 29.6127 15.377 28.8024 15.7325 28.0614C16.263 26.8987 16.6917 25.6923 17.0137 24.4555C17.076 24.2247 17.136 23.9938 17.196 23.763C17.3115 23.322 17.4269 22.8765 17.5262 22.431L21.9677 10.5652C22.8903 9.33647 24.0864 8.33939 25.4611 7.65301C26.8358 6.96663 28.3516 6.60979 29.8881 6.61078C32.1008 6.59716 34.2521 7.33815 35.9872 8.71152C38.8913 10.9092 40.6204 15.2377 40.6204 15.2377C40.8725 15.8012 41.0022 16.4117 41.0013 17.0291C41.0001 17.6008 40.8863 18.1667 40.6663 18.6945C40.4465 19.2223 40.1247 19.7016 39.7196 20.105C39.3145 20.5084 38.8338 20.8281 38.3052 21.0458C37.7765 21.2635 37.21 21.3749 36.6382 21.3737C36.0024 21.3732 35.3743 21.233 34.7988 20.963C34.223 20.6929 33.7138 20.2996 33.307 19.8108L33.2655 19.76C32.9864 19.3832 32.7537 18.9739 32.5729 18.5411C32.3335 17.9979 32.0653 17.4677 31.7696 16.9529C31.6126 16.6874 31.4371 16.4358 31.2571 16.1865C31.1015 15.9636 30.9175 15.7618 30.71 15.5862C30.3014 15.2561 29.7866 15.1245 29.3064 15.4085C29.2833 15.4218 29.2609 15.4364 29.2395 15.4523C28.7454 15.7917 28.3992 16.4773 28.1591 17.0037C27.4665 18.495 27.0695 20.0232 26.677 21.593C26.6031 21.8954 26.5293 22.1978 26.46 22.5025L24.6248 28.5046L22.037 34.2112C21.1105 35.4068 19.9248 36.3766 18.5693 37.0477C17.2138 37.7185 15.7236 38.0734 14.2111 38.0849C7.92508 38.2188 4.9425 32.5445 4.9425 32.5445C1.36202 26.6717 0.307031 18.9243 0.0554039 16.4473C0.00230832 15.9325 3.00786e-07 15.6255 3.00786e-07 15.6255C-0.00029124 14.8496 0.211358 14.0884 0.612098 13.424C1.01284 12.7596 1.58744 12.2173 2.27388 11.8557C2.98364 11.4961 3.77347 11.3236 4.56854 11.3548C5.30823 11.3857 6.02793 11.6041 6.66005 11.9896C7.15123 12.2836 7.57578 12.6767 7.90661 13.1438C8.49759 13.9841 8.63148 15.0299 8.74922 16.0295C8.99369 18.2216 9.42226 20.3892 10.0304 22.5094Z" fill="url(#paint1_radial_19536_1442)"/>
<path d="M10.0304 22.5094C10.5142 24.2099 11.1733 25.8555 11.9973 27.4196C12.3736 28.1122 12.7499 28.8047 13.4332 29.241C13.5516 29.3154 13.682 29.3686 13.8187 29.398C14.8252 29.6127 15.377 28.8024 15.7325 28.0614C16.263 26.8987 16.6917 25.6923 17.0137 24.4555C17.076 24.2247 17.136 23.9938 17.196 23.763C17.3115 23.322 17.4269 22.8765 17.5262 22.431L21.9677 10.5652C22.8903 9.33647 24.0864 8.33939 25.4611 7.65301C26.8358 6.96663 28.3516 6.60979 29.8881 6.61078C32.1008 6.59716 34.2521 7.33815 35.9872 8.71152C38.8913 10.9092 40.6204 15.2377 40.6204 15.2377C40.8725 15.8012 41.0022 16.4117 41.0013 17.0291C41.0001 17.6008 40.8863 18.1667 40.6663 18.6945C40.4465 19.2223 40.1247 19.7016 39.7196 20.105C39.3145 20.5084 38.8338 20.8281 38.3052 21.0458C37.7765 21.2635 37.21 21.3749 36.6382 21.3737C36.0024 21.3732 35.3743 21.233 34.7988 20.963C34.223 20.6929 33.7138 20.2996 33.307 19.8108L33.2655 19.76C32.9864 19.3832 32.7537 18.9739 32.5729 18.5411C32.3335 17.9979 32.0653 17.4677 31.7696 16.9529C31.6126 16.6874 31.4371 16.4358 31.2571 16.1865C31.1015 15.9636 30.9175 15.7618 30.71 15.5862C30.3014 15.2561 29.7866 15.1245 29.3064 15.4085C29.2833 15.4218 29.2609 15.4364 29.2395 15.4523C28.7454 15.7917 28.3992 16.4773 28.1591 17.0037C27.4665 18.495 27.0695 20.0232 26.677 21.593C26.6031 21.8954 26.5293 22.1978 26.46 22.5025L24.6248 28.5046L22.037 34.2112C21.1105 35.4068 19.9248 36.3766 18.5693 37.0477C17.2138 37.7185 15.7236 38.0734 14.2111 38.0849C7.92508 38.2188 4.9425 32.5445 4.9425 32.5445C1.36202 26.6717 0.307031 18.9243 0.0554039 16.4473C0.00230832 15.9325 3.00786e-07 15.6255 3.00786e-07 15.6255C-0.00029124 14.8496 0.211358 14.0884 0.612098 13.424C1.01284 12.7596 1.58744 12.2173 2.27388 11.8557C2.98364 11.4961 3.77347 11.3236 4.56854 11.3548C5.30823 11.3857 6.02793 11.6041 6.66005 11.9896C7.15123 12.2836 7.57578 12.6767 7.90661 13.1438C8.49759 13.9841 8.63148 15.0299 8.74922 16.0295C8.99369 18.2216 9.42226 20.3892 10.0304 22.5094Z" fill="url(#paint2_radial_19536_1442)"/>
<path d="M10.0304 22.5094C10.5142 24.2099 11.1733 25.8555 11.9973 27.4196C12.3736 28.1122 12.7499 28.8047 13.4332 29.241C13.5516 29.3154 13.682 29.3686 13.8187 29.398C14.8252 29.6127 15.377 28.8024 15.7325 28.0614C16.263 26.8987 16.6917 25.6923 17.0137 24.4555C17.076 24.2247 17.136 23.9938 17.196 23.763C17.3115 23.322 17.4269 22.8765 17.5262 22.431L21.9677 10.5652C22.8903 9.33647 24.0864 8.33939 25.4611 7.65301C26.8358 6.96663 28.3516 6.60979 29.8881 6.61078C32.1008 6.59716 34.2521 7.33815 35.9872 8.71152C38.8913 10.9092 40.6204 15.2377 40.6204 15.2377C40.8725 15.8012 41.0022 16.4117 41.0013 17.0291C41.0001 17.6008 40.8863 18.1667 40.6663 18.6945C40.4465 19.2223 40.1247 19.7016 39.7196 20.105C39.3145 20.5084 38.8338 20.8281 38.3052 21.0458C37.7765 21.2635 37.21 21.3749 36.6382 21.3737C36.0024 21.3732 35.3743 21.233 34.7988 20.963C34.223 20.6929 33.7138 20.2996 33.307 19.8108L33.2655 19.76C32.9864 19.3832 32.7537 18.9739 32.5729 18.5411C32.3335 17.9979 32.0653 17.4677 31.7696 16.9529C31.6126 16.6874 31.4371 16.4358 31.2571 16.1865C31.1015 15.9636 30.9175 15.7618 30.71 15.5862C30.3014 15.2561 29.7866 15.1245 29.3064 15.4085C29.2833 15.4218 29.2609 15.4364 29.2395 15.4523C28.7454 15.7917 28.3992 16.4773 28.1591 17.0037C27.4665 18.495 27.0695 20.0232 26.677 21.593C26.6031 21.8954 26.5293 22.1978 26.46 22.5025L24.6248 28.5046L22.037 34.2112C21.1105 35.4068 19.9248 36.3766 18.5693 37.0477C17.2138 37.7185 15.7236 38.0734 14.2111 38.0849C7.92508 38.2188 4.9425 32.5445 4.9425 32.5445C1.36202 26.6717 0.307031 18.9243 0.0554039 16.4473C0.00230832 15.9325 3.00786e-07 15.6255 3.00786e-07 15.6255C-0.00029124 14.8496 0.211358 14.0884 0.612098 13.424C1.01284 12.7596 1.58744 12.2173 2.27388 11.8557C2.98364 11.4961 3.77347 11.3236 4.56854 11.3548C5.30823 11.3857 6.02793 11.6041 6.66005 11.9896C7.15123 12.2836 7.57578 12.6767 7.90661 13.1438C8.49759 13.9841 8.63148 15.0299 8.74922 16.0295C8.99369 18.2216 9.42226 20.3892 10.0304 22.5094Z" fill="url(#paint3_radial_19536_1442)"/>
<path d="M10.0304 22.5094C10.5142 24.2099 11.1733 25.8555 11.9973 27.4196C12.3736 28.1122 12.7499 28.8047 13.4332 29.241C13.5516 29.3154 13.682 29.3686 13.8187 29.398C14.8252 29.6127 15.377 28.8024 15.7325 28.0614C16.263 26.8987 16.6917 25.6923 17.0137 24.4555C17.076 24.2247 17.136 23.9938 17.196 23.763C17.3115 23.322 17.4269 22.8765 17.5262 22.431L21.9677 10.5652C22.8903 9.33647 24.0864 8.33939 25.4611 7.65301C26.8358 6.96663 28.3516 6.60979 29.8881 6.61078C32.1008 6.59716 34.2521 7.33815 35.9872 8.71152C38.8913 10.9092 40.6204 15.2377 40.6204 15.2377C40.8725 15.8012 41.0022 16.4117 41.0013 17.0291C41.0001 17.6008 40.8863 18.1667 40.6663 18.6945C40.4465 19.2223 40.1247 19.7016 39.7196 20.105C39.3145 20.5084 38.8338 20.8281 38.3052 21.0458C37.7765 21.2635 37.21 21.3749 36.6382 21.3737C36.0024 21.3732 35.3743 21.233 34.7988 20.963C34.223 20.6929 33.7138 20.2996 33.307 19.8108L33.2655 19.76C32.9864 19.3832 32.7537 18.9739 32.5729 18.5411C32.3335 17.9979 32.0653 17.4677 31.7696 16.9529C31.6126 16.6874 31.4371 16.4358 31.2571 16.1865C31.1015 15.9636 30.9175 15.7618 30.71 15.5862C30.3014 15.2561 29.7866 15.1245 29.3064 15.4085C29.2833 15.4218 29.2609 15.4364 29.2395 15.4523C28.7454 15.7917 28.3992 16.4773 28.1591 17.0037C27.4665 18.495 27.0695 20.0232 26.677 21.593C26.6031 21.8954 26.5293 22.1978 26.46 22.5025L24.6248 28.5046L22.037 34.2112C21.1105 35.4068 19.9248 36.3766 18.5693 37.0477C17.2138 37.7185 15.7236 38.0734 14.2111 38.0849C7.92508 38.2188 4.9425 32.5445 4.9425 32.5445C1.36202 26.6717 0.307031 18.9243 0.0554039 16.4473C0.00230832 15.9325 3.00786e-07 15.6255 3.00786e-07 15.6255C-0.00029124 14.8496 0.211358 14.0884 0.612098 13.424C1.01284 12.7596 1.58744 12.2173 2.27388 11.8557C2.98364 11.4961 3.77347 11.3236 4.56854 11.3548C5.30823 11.3857 6.02793 11.6041 6.66005 11.9896C7.15123 12.2836 7.57578 12.6767 7.90661 13.1438C8.49759 13.9841 8.63148 15.0299 8.74922 16.0295C8.99369 18.2216 9.42226 20.3892 10.0304 22.5094Z" fill="url(#paint4_radial_19536_1442)"/>
<path d="M10.0304 22.5094C10.5142 24.2099 11.1733 25.8555 11.9973 27.4196C12.3736 28.1122 12.7499 28.8047 13.4332 29.241C13.5516 29.3154 13.682 29.3686 13.8187 29.398C14.8252 29.6127 15.377 28.8024 15.7325 28.0614C16.263 26.8987 16.6917 25.6923 17.0137 24.4555C17.076 24.2247 17.136 23.9938 17.196 23.763C17.3115 23.322 17.4269 22.8765 17.5262 22.431L21.9677 10.5652C22.8903 9.33647 24.0864 8.33939 25.4611 7.65301C26.8358 6.96663 28.3516 6.60979 29.8881 6.61078C32.1008 6.59716 34.2521 7.33815 35.9872 8.71152C38.8913 10.9092 40.6204 15.2377 40.6204 15.2377C40.8725 15.8012 41.0022 16.4117 41.0013 17.0291C41.0001 17.6008 40.8863 18.1667 40.6663 18.6945C40.4465 19.2223 40.1247 19.7016 39.7196 20.105C39.3145 20.5084 38.8338 20.8281 38.3052 21.0458C37.7765 21.2635 37.21 21.3749 36.6382 21.3737C36.0024 21.3732 35.3743 21.233 34.7988 20.963C34.223 20.6929 33.7138 20.2996 33.307 19.8108L33.2655 19.76C32.9864 19.3832 32.7537 18.9739 32.5729 18.5411C32.3335 17.9979 32.0653 17.4677 31.7696 16.9529C31.6126 16.6874 31.4371 16.4358 31.2571 16.1865C31.1015 15.9636 30.9175 15.7618 30.71 15.5862C30.3014 15.2561 29.7866 15.1245 29.3064 15.4085C29.2833 15.4218 29.2609 15.4364 29.2395 15.4523C28.7454 15.7917 28.3992 16.4773 28.1591 17.0037C27.4665 18.495 27.0695 20.0232 26.677 21.593C26.6031 21.8954 26.5293 22.1978 26.46 22.5025L24.6248 28.5046L22.037 34.2112C21.1105 35.4068 19.9248 36.3766 18.5693 37.0477C17.2138 37.7185 15.7236 38.0734 14.2111 38.0849C7.92508 38.2188 4.9425 32.5445 4.9425 32.5445C1.36202 26.6717 0.307031 18.9243 0.0554039 16.4473C0.00230832 15.9325 3.00786e-07 15.6255 3.00786e-07 15.6255C-0.00029124 14.8496 0.211358 14.0884 0.612098 13.424C1.01284 12.7596 1.58744 12.2173 2.27388 11.8557C2.98364 11.4961 3.77347 11.3236 4.56854 11.3548C5.30823 11.3857 6.02793 11.6041 6.66005 11.9896C7.15123 12.2836 7.57578 12.6767 7.90661 13.1438C8.49759 13.9841 8.63148 15.0299 8.74922 16.0295C8.99369 18.2216 9.42226 20.3892 10.0304 22.5094Z" fill="url(#paint5_radial_19536_1442)"/>
<path d="M10.0304 22.5094C10.5142 24.2099 11.1733 25.8555 11.9973 27.4196C12.3736 28.1122 12.7499 28.8047 13.4332 29.241C13.5516 29.3154 13.682 29.3686 13.8187 29.398C14.8252 29.6127 15.377 28.8024 15.7325 28.0614C16.263 26.8987 16.6917 25.6923 17.0137 24.4555C17.076 24.2247 17.136 23.9938 17.196 23.763C17.3115 23.322 17.4269 22.8765 17.5262 22.431L21.9677 10.5652C22.8903 9.33647 24.0864 8.33939 25.4611 7.65301C26.8358 6.96663 28.3516 6.60979 29.8881 6.61078C32.1008 6.59716 34.2521 7.33815 35.9872 8.71152C38.8913 10.9092 40.6204 15.2377 40.6204 15.2377C40.8725 15.8012 41.0022 16.4117 41.0013 17.0291C41.0001 17.6008 40.8863 18.1667 40.6663 18.6945C40.4465 19.2223 40.1247 19.7016 39.7196 20.105C39.3145 20.5084 38.8338 20.8281 38.3052 21.0458C37.7765 21.2635 37.21 21.3749 36.6382 21.3737C36.0024 21.3732 35.3743 21.233 34.7988 20.963C34.223 20.6929 33.7138 20.2996 33.307 19.8108L33.2655 19.76C32.9864 19.3832 32.7537 18.9739 32.5729 18.5411C32.3335 17.9979 32.0653 17.4677 31.7696 16.9529C31.6126 16.6874 31.4371 16.4358 31.2571 16.1865C31.1015 15.9636 30.9175 15.7618 30.71 15.5862C30.3014 15.2561 29.7866 15.1245 29.3064 15.4085C29.2833 15.4218 29.2609 15.4364 29.2395 15.4523C28.7454 15.7917 28.3992 16.4773 28.1591 17.0037C27.4665 18.495 27.0695 20.0232 26.677 21.593C26.6031 21.8954 26.5293 22.1978 26.46 22.5025L24.6248 28.5046L22.037 34.2112C21.1105 35.4068 19.9248 36.3766 18.5693 37.0477C17.2138 37.7185 15.7236 38.0734 14.2111 38.0849C7.92508 38.2188 4.9425 32.5445 4.9425 32.5445C1.36202 26.6717 0.307031 18.9243 0.0554039 16.4473C0.00230832 15.9325 3.00786e-07 15.6255 3.00786e-07 15.6255C-0.00029124 14.8496 0.211358 14.0884 0.612098 13.424C1.01284 12.7596 1.58744 12.2173 2.27388 11.8557C2.98364 11.4961 3.77347 11.3236 4.56854 11.3548C5.30823 11.3857 6.02793 11.6041 6.66005 11.9896C7.15123 12.2836 7.57578 12.6767 7.90661 13.1438C8.49759 13.9841 8.63148 15.0299 8.74922 16.0295C8.99369 18.2216 9.42226 20.3892 10.0304 22.5094Z" fill="url(#paint6_radial_19536_1442)"/>
<path d="M10.0304 22.5094C10.5142 24.2099 11.1733 25.8555 11.9973 27.4196C12.3736 28.1122 12.7499 28.8047 13.4332 29.241C13.5516 29.3154 13.682 29.3686 13.8187 29.398C14.8252 29.6127 15.377 28.8024 15.7325 28.0614C16.263 26.8987 16.6917 25.6923 17.0137 24.4555C17.076 24.2247 17.136 23.9938 17.196 23.763C17.3115 23.322 17.4269 22.8765 17.5262 22.431L21.9677 10.5652C22.8903 9.33647 24.0864 8.33939 25.4611 7.65301C26.8358 6.96663 28.3516 6.60979 29.8881 6.61078C32.1008 6.59716 34.2521 7.33815 35.9872 8.71152C38.8913 10.9092 40.6204 15.2377 40.6204 15.2377C40.8725 15.8012 41.0022 16.4117 41.0013 17.0291C41.0001 17.6008 40.8863 18.1667 40.6663 18.6945C40.4465 19.2223 40.1247 19.7016 39.7196 20.105C39.3145 20.5084 38.8338 20.8281 38.3052 21.0458C37.7765 21.2635 37.21 21.3749 36.6382 21.3737C36.0024 21.3732 35.3743 21.233 34.7988 20.963C34.223 20.6929 33.7138 20.2996 33.307 19.8108L33.2655 19.76C32.9864 19.3832 32.7537 18.9739 32.5729 18.5411C32.3335 17.9979 32.0653 17.4677 31.7696 16.9529C31.6126 16.6874 31.4371 16.4358 31.2571 16.1865C31.1015 15.9636 30.9175 15.7618 30.71 15.5862C30.3014 15.2561 29.7866 15.1245 29.3064 15.4085C29.2833 15.4218 29.2609 15.4364 29.2395 15.4523C28.7454 15.7917 28.3992 16.4773 28.1591 17.0037C27.4665 18.495 27.0695 20.0232 26.677 21.593C26.6031 21.8954 26.5293 22.1978 26.46 22.5025L24.6248 28.5046L22.037 34.2112C21.1105 35.4068 19.9248 36.3766 18.5693 37.0477C17.2138 37.7185 15.7236 38.0734 14.2111 38.0849C7.92508 38.2188 4.9425 32.5445 4.9425 32.5445C1.36202 26.6717 0.307031 18.9243 0.0554039 16.4473C0.00230832 15.9325 3.00786e-07 15.6255 3.00786e-07 15.6255C-0.00029124 14.8496 0.211358 14.0884 0.612098 13.424C1.01284 12.7596 1.58744 12.2173 2.27388 11.8557C2.98364 11.4961 3.77347 11.3236 4.56854 11.3548C5.30823 11.3857 6.02793 11.6041 6.66005 11.9896C7.15123 12.2836 7.57578 12.6767 7.90661 13.1438C8.49759 13.9841 8.63148 15.0299 8.74922 16.0295C8.99369 18.2216 9.42226 20.3892 10.0304 22.5094Z" fill="url(#paint7_radial_19536_1442)"/>
<path d="M10.0304 22.5094C10.5142 24.2099 11.1733 25.8555 11.9973 27.4196C12.3736 28.1122 12.7499 28.8047 13.4332 29.241C13.5516 29.3154 13.682 29.3686 13.8187 29.398C14.8252 29.6127 15.377 28.8024 15.7325 28.0614C16.263 26.8987 16.6917 25.6923 17.0137 24.4555C17.076 24.2247 17.136 23.9938 17.196 23.763C17.3115 23.322 17.4269 22.8765 17.5262 22.431L21.9677 10.5652C22.8903 9.33647 24.0864 8.33939 25.4611 7.65301C26.8358 6.96663 28.3516 6.60979 29.8881 6.61078C32.1008 6.59716 34.2521 7.33815 35.9872 8.71152C38.8913 10.9092 40.6204 15.2377 40.6204 15.2377C40.8725 15.8012 41.0022 16.4117 41.0013 17.0291C41.0001 17.6008 40.8863 18.1667 40.6663 18.6945C40.4465 19.2223 40.1247 19.7016 39.7196 20.105C39.3145 20.5084 38.8338 20.8281 38.3052 21.0458C37.7765 21.2635 37.21 21.3749 36.6382 21.3737C36.0024 21.3732 35.3743 21.233 34.7988 20.963C34.223 20.6929 33.7138 20.2996 33.307 19.8108L33.2655 19.76C32.9864 19.3832 32.7537 18.9739 32.5729 18.5411C32.3335 17.9979 32.0653 17.4677 31.7696 16.9529C31.6126 16.6874 31.4371 16.4358 31.2571 16.1865C31.1015 15.9636 30.9175 15.7618 30.71 15.5862C30.3014 15.2561 29.7866 15.1245 29.3064 15.4085C29.2833 15.4218 29.2609 15.4364 29.2395 15.4523C28.7454 15.7917 28.3992 16.4773 28.1591 17.0037C27.4665 18.495 27.0695 20.0232 26.677 21.593C26.6031 21.8954 26.5293 22.1978 26.46 22.5025L24.6248 28.5046L22.037 34.2112C21.1105 35.4068 19.9248 36.3766 18.5693 37.0477C17.2138 37.7185 15.7236 38.0734 14.2111 38.0849C7.92508 38.2188 4.9425 32.5445 4.9425 32.5445C1.36202 26.6717 0.307031 18.9243 0.0554039 16.4473C0.00230832 15.9325 3.00786e-07 15.6255 3.00786e-07 15.6255C-0.00029124 14.8496 0.211358 14.0884 0.612098 13.424C1.01284 12.7596 1.58744 12.2173 2.27388 11.8557C2.98364 11.4961 3.77347 11.3236 4.56854 11.3548C5.30823 11.3857 6.02793 11.6041 6.66005 11.9896C7.15123 12.2836 7.57578 12.6767 7.90661 13.1438C8.49759 13.9841 8.63148 15.0299 8.74922 16.0295C8.99369 18.2216 9.42226 20.3892 10.0304 22.5094Z" fill="url(#paint8_radial_19536_1442)"/>
<path d="M10.0304 22.5094C10.5142 24.2099 11.1733 25.8555 11.9973 27.4196C12.3736 28.1122 12.7499 28.8047 13.4332 29.241C13.5516 29.3154 13.682 29.3686 13.8187 29.398C14.8252 29.6127 15.377 28.8024 15.7325 28.0614C16.263 26.8987 16.6917 25.6923 17.0137 24.4555C17.076 24.2247 17.136 23.9938 17.196 23.763C17.3115 23.322 17.4269 22.8765 17.5262 22.431L21.9677 10.5652C22.8903 9.33647 24.0864 8.33939 25.4611 7.65301C26.8358 6.96663 28.3516 6.60979 29.8881 6.61078C32.1008 6.59716 34.2521 7.33815 35.9872 8.71152C38.8913 10.9092 40.6204 15.2377 40.6204 15.2377C40.8725 15.8012 41.0022 16.4117 41.0013 17.0291C41.0001 17.6008 40.8863 18.1667 40.6663 18.6945C40.4465 19.2223 40.1247 19.7016 39.7196 20.105C39.3145 20.5084 38.8338 20.8281 38.3052 21.0458C37.7765 21.2635 37.21 21.3749 36.6382 21.3737C36.0024 21.3732 35.3743 21.233 34.7988 20.963C34.223 20.6929 33.7138 20.2996 33.307 19.8108L33.2655 19.76C32.9864 19.3832 32.7537 18.9739 32.5729 18.5411C32.3335 17.9979 32.0653 17.4677 31.7696 16.9529C31.6126 16.6874 31.4371 16.4358 31.2571 16.1865C31.1015 15.9636 30.9175 15.7618 30.71 15.5862C30.3014 15.2561 29.7866 15.1245 29.3064 15.4085C29.2833 15.4218 29.2609 15.4364 29.2395 15.4523C28.7454 15.7917 28.3992 16.4773 28.1591 17.0037C27.4665 18.495 27.0695 20.0232 26.677 21.593C26.6031 21.8954 26.5293 22.1978 26.46 22.5025L24.6248 28.5046L22.037 34.2112C21.1105 35.4068 19.9248 36.3766 18.5693 37.0477C17.2138 37.7185 15.7236 38.0734 14.2111 38.0849C7.92508 38.2188 4.9425 32.5445 4.9425 32.5445C1.36202 26.6717 0.307031 18.9243 0.0554039 16.4473C0.00230832 15.9325 3.00786e-07 15.6255 3.00786e-07 15.6255C-0.00029124 14.8496 0.211358 14.0884 0.612098 13.424C1.01284 12.7596 1.58744 12.2173 2.27388 11.8557C2.98364 11.4961 3.77347 11.3236 4.56854 11.3548C5.30823 11.3857 6.02793 11.6041 6.66005 11.9896C7.15123 12.2836 7.57578 12.6767 7.90661 13.1438C8.49759 13.9841 8.63148 15.0299 8.74922 16.0295C8.99369 18.2216 9.42226 20.3892 10.0304 22.5094Z" fill="url(#paint9_radial_19536_1442)"/>
<path d="M10.0304 22.5094C10.5142 24.2099 11.1733 25.8555 11.9973 27.4196C12.3736 28.1122 12.7499 28.8047 13.4332 29.241C13.5516 29.3154 13.682 29.3686 13.8187 29.398C14.8252 29.6127 15.377 28.8024 15.7325 28.0614C16.263 26.8987 16.6917 25.6923 17.0137 24.4555C17.076 24.2247 17.136 23.9938 17.196 23.763C17.3115 23.322 17.4269 22.8765 17.5262 22.431L21.9677 10.5652C22.8903 9.33647 24.0864 8.33939 25.4611 7.65301C26.8358 6.96663 28.3516 6.60979 29.8881 6.61078C32.1008 6.59716 34.2521 7.33815 35.9872 8.71152C38.8913 10.9092 40.6204 15.2377 40.6204 15.2377C40.8725 15.8012 41.0022 16.4117 41.0013 17.0291C41.0001 17.6008 40.8863 18.1667 40.6663 18.6945C40.4465 19.2223 40.1247 19.7016 39.7196 20.105C39.3145 20.5084 38.8338 20.8281 38.3052 21.0458C37.7765 21.2635 37.21 21.3749 36.6382 21.3737C36.0024 21.3732 35.3743 21.233 34.7988 20.963C34.223 20.6929 33.7138 20.2996 33.307 19.8108L33.2655 19.76C32.9864 19.3832 32.7537 18.9739 32.5729 18.5411C32.3335 17.9979 32.0653 17.4677 31.7696 16.9529C31.6126 16.6874 31.4371 16.4358 31.2571 16.1865C31.1015 15.9636 30.9175 15.7618 30.71 15.5862C30.3014 15.2561 29.7866 15.1245 29.3064 15.4085C29.2833 15.4218 29.2609 15.4364 29.2395 15.4523C28.7454 15.7917 28.3992 16.4773 28.1591 17.0037C27.4665 18.495 27.0695 20.0232 26.677 21.593C26.6031 21.8954 26.5293 22.1978 26.46 22.5025L24.6248 28.5046L22.037 34.2112C21.1105 35.4068 19.9248 36.3766 18.5693 37.0477C17.2138 37.7185 15.7236 38.0734 14.2111 38.0849C7.92508 38.2188 4.9425 32.5445 4.9425 32.5445C1.36202 26.6717 0.307031 18.9243 0.0554039 16.4473C0.00230832 15.9325 3.00786e-07 15.6255 3.00786e-07 15.6255C-0.00029124 14.8496 0.211358 14.0884 0.612098 13.424C1.01284 12.7596 1.58744 12.2173 2.27388 11.8557C2.98364 11.4961 3.77347 11.3236 4.56854 11.3548C5.30823 11.3857 6.02793 11.6041 6.66005 11.9896C7.15123 12.2836 7.57578 12.6767 7.90661 13.1438C8.49759 13.9841 8.63148 15.0299 8.74922 16.0295C8.99369 18.2216 9.42226 20.3892 10.0304 22.5094Z" fill="url(#paint10_radial_19536_1442)"/>
<path d="M10.0304 22.5094C10.5142 24.2099 11.1733 25.8555 11.9973 27.4196C12.3736 28.1122 12.7499 28.8047 13.4332 29.241C13.5516 29.3154 13.682 29.3686 13.8187 29.398C14.8252 29.6127 15.377 28.8024 15.7325 28.0614C16.263 26.8987 16.6917 25.6923 17.0137 24.4555C17.076 24.2247 17.136 23.9938 17.196 23.763C17.3115 23.322 17.4269 22.8765 17.5262 22.431L21.9677 10.5652C22.8903 9.33647 24.0864 8.33939 25.4611 7.65301C26.8358 6.96663 28.3516 6.60979 29.8881 6.61078C32.1008 6.59716 34.2521 7.33815 35.9872 8.71152C38.8913 10.9092 40.6204 15.2377 40.6204 15.2377C40.8725 15.8012 41.0022 16.4117 41.0013 17.0291C41.0001 17.6008 40.8863 18.1667 40.6663 18.6945C40.4465 19.2223 40.1247 19.7016 39.7196 20.105C39.3145 20.5084 38.8338 20.8281 38.3052 21.0458C37.7765 21.2635 37.21 21.3749 36.6382 21.3737C36.0024 21.3732 35.3743 21.233 34.7988 20.963C34.223 20.6929 33.7138 20.2996 33.307 19.8108L33.2655 19.76C32.9864 19.3832 32.7537 18.9739 32.5729 18.5411C32.3335 17.9979 32.0653 17.4677 31.7696 16.9529C31.6126 16.6874 31.4371 16.4358 31.2571 16.1865C31.1015 15.9636 30.9175 15.7618 30.71 15.5862C30.3014 15.2561 29.7866 15.1245 29.3064 15.4085C29.2833 15.4218 29.2609 15.4364 29.2395 15.4523C28.7454 15.7917 28.3992 16.4773 28.1591 17.0037C27.4665 18.495 27.0695 20.0232 26.677 21.593C26.6031 21.8954 26.5293 22.1978 26.46 22.5025L24.6248 28.5046L22.037 34.2112C21.1105 35.4068 19.9248 36.3766 18.5693 37.0477C17.2138 37.7185 15.7236 38.0734 14.2111 38.0849C7.92508 38.2188 4.9425 32.5445 4.9425 32.5445C1.36202 26.6717 0.307031 18.9243 0.0554039 16.4473C0.00230832 15.9325 3.00786e-07 15.6255 3.00786e-07 15.6255C-0.00029124 14.8496 0.211358 14.0884 0.612098 13.424C1.01284 12.7596 1.58744 12.2173 2.27388 11.8557C2.98364 11.4961 3.77347 11.3236 4.56854 11.3548C5.30823 11.3857 6.02793 11.6041 6.66005 11.9896C7.15123 12.2836 7.57578 12.6767 7.90661 13.1438C8.49759 13.9841 8.63148 15.0299 8.74922 16.0295C8.99369 18.2216 9.42226 20.3892 10.0304 22.5094Z" fill="url(#paint11_radial_19536_1442)"/>
<path d="M10.0304 22.5094C10.5142 24.2099 11.1733 25.8555 11.9973 27.4196C12.3736 28.1122 12.7499 28.8047 13.4332 29.241C13.5516 29.3154 13.682 29.3686 13.8187 29.398C14.8252 29.6127 15.377 28.8024 15.7325 28.0614C16.263 26.8987 16.6917 25.6923 17.0137 24.4555C17.076 24.2247 17.136 23.9938 17.196 23.763C17.3115 23.322 17.4269 22.8765 17.5262 22.431L21.9677 10.5652C22.8903 9.33647 24.0864 8.33939 25.4611 7.65301C26.8358 6.96663 28.3516 6.60979 29.8881 6.61078C32.1008 6.59716 34.2521 7.33815 35.9872 8.71152C38.8913 10.9092 40.6204 15.2377 40.6204 15.2377C40.8725 15.8012 41.0022 16.4117 41.0013 17.0291C41.0001 17.6008 40.8863 18.1667 40.6663 18.6945C40.4465 19.2223 40.1247 19.7016 39.7196 20.105C39.3145 20.5084 38.8338 20.8281 38.3052 21.0458C37.7765 21.2635 37.21 21.3749 36.6382 21.3737C36.0024 21.3732 35.3743 21.233 34.7988 20.963C34.223 20.6929 33.7138 20.2996 33.307 19.8108L33.2655 19.76C32.9864 19.3832 32.7537 18.9739 32.5729 18.5411C32.3335 17.9979 32.0653 17.4677 31.7696 16.9529C31.6126 16.6874 31.4371 16.4358 31.2571 16.1865C31.1015 15.9636 30.9175 15.7618 30.71 15.5862C30.3014 15.2561 29.7866 15.1245 29.3064 15.4085C29.2833 15.4218 29.2609 15.4364 29.2395 15.4523C28.7454 15.7917 28.3992 16.4773 28.1591 17.0037C27.4665 18.495 27.0695 20.0232 26.677 21.593C26.6031 21.8954 26.5293 22.1978 26.46 22.5025L24.6248 28.5046L22.037 34.2112C21.1105 35.4068 19.9248 36.3766 18.5693 37.0477C17.2138 37.7185 15.7236 38.0734 14.2111 38.0849C7.92508 38.2188 4.9425 32.5445 4.9425 32.5445C1.36202 26.6717 0.307031 18.9243 0.0554039 16.4473C0.00230832 15.9325 3.00786e-07 15.6255 3.00786e-07 15.6255C-0.00029124 14.8496 0.211358 14.0884 0.612098 13.424C1.01284 12.7596 1.58744 12.2173 2.27388 11.8557C2.98364 11.4961 3.77347 11.3236 4.56854 11.3548C5.30823 11.3857 6.02793 11.6041 6.66005 11.9896C7.15123 12.2836 7.57578 12.6767 7.90661 13.1438C8.49759 13.9841 8.63148 15.0299 8.74922 16.0295C8.99369 18.2216 9.42226 20.3892 10.0304 22.5094Z" fill="url(#paint12_radial_19536_1442)"/>
<path d="M10.0304 22.5094C10.5142 24.2099 11.1733 25.8555 11.9973 27.4196C12.3736 28.1122 12.7499 28.8047 13.4332 29.241C13.5516 29.3154 13.682 29.3686 13.8187 29.398C14.8252 29.6127 15.377 28.8024 15.7325 28.0614C16.263 26.8987 16.6917 25.6923 17.0137 24.4555C17.076 24.2247 17.136 23.9938 17.196 23.763C17.3115 23.322 17.4269 22.8765 17.5262 22.431L21.9677 10.5652C22.8903 9.33647 24.0864 8.33939 25.4611 7.65301C26.8358 6.96663 28.3516 6.60979 29.8881 6.61078C32.1008 6.59716 34.2521 7.33815 35.9872 8.71152C38.8913 10.9092 40.6204 15.2377 40.6204 15.2377C40.8725 15.8012 41.0022 16.4117 41.0013 17.0291C41.0001 17.6008 40.8863 18.1667 40.6663 18.6945C40.4465 19.2223 40.1247 19.7016 39.7196 20.105C39.3145 20.5084 38.8338 20.8281 38.3052 21.0458C37.7765 21.2635 37.21 21.3749 36.6382 21.3737C36.0024 21.3732 35.3743 21.233 34.7988 20.963C34.223 20.6929 33.7138 20.2996 33.307 19.8108L33.2655 19.76C32.9864 19.3832 32.7537 18.9739 32.5729 18.5411C32.3335 17.9979 32.0653 17.4677 31.7696 16.9529C31.6126 16.6874 31.4371 16.4358 31.2571 16.1865C31.1015 15.9636 30.9175 15.7618 30.71 15.5862C30.3014 15.2561 29.7866 15.1245 29.3064 15.4085C29.2833 15.4218 29.2609 15.4364 29.2395 15.4523C28.7454 15.7917 28.3992 16.4773 28.1591 17.0037C27.4665 18.495 27.0695 20.0232 26.677 21.593C26.6031 21.8954 26.5293 22.1978 26.46 22.5025L24.6248 28.5046L22.037 34.2112C21.1105 35.4068 19.9248 36.3766 18.5693 37.0477C17.2138 37.7185 15.7236 38.0734 14.2111 38.0849C7.92508 38.2188 4.9425 32.5445 4.9425 32.5445C1.36202 26.6717 0.307031 18.9243 0.0554039 16.4473C0.00230832 15.9325 3.00786e-07 15.6255 3.00786e-07 15.6255C-0.00029124 14.8496 0.211358 14.0884 0.612098 13.424C1.01284 12.7596 1.58744 12.2173 2.27388 11.8557C2.98364 11.4961 3.77347 11.3236 4.56854 11.3548C5.30823 11.3857 6.02793 11.6041 6.66005 11.9896C7.15123 12.2836 7.57578 12.6767 7.90661 13.1438C8.49759 13.9841 8.63148 15.0299 8.74922 16.0295C8.99369 18.2216 9.42226 20.3892 10.0304 22.5094Z" fill="url(#paint13_radial_19536_1442)"/>
<path d="M10.0304 22.5094C10.5142 24.2099 11.1733 25.8555 11.9973 27.4196C12.3736 28.1122 12.7499 28.8047 13.4332 29.241C13.5516 29.3154 13.682 29.3686 13.8187 29.398C14.8252 29.6127 15.377 28.8024 15.7325 28.0614C16.263 26.8987 16.6917 25.6923 17.0137 24.4555C17.076 24.2247 17.136 23.9938 17.196 23.763C17.3115 23.322 17.4269 22.8765 17.5262 22.431L21.9677 10.5652C22.8903 9.33647 24.0864 8.33939 25.4611 7.65301C26.8358 6.96663 28.3516 6.60979 29.8881 6.61078C32.1008 6.59716 34.2521 7.33815 35.9872 8.71152C38.8913 10.9092 40.6204 15.2377 40.6204 15.2377C40.8725 15.8012 41.0022 16.4117 41.0013 17.0291C41.0001 17.6008 40.8863 18.1667 40.6663 18.6945C40.4465 19.2223 40.1247 19.7016 39.7196 20.105C39.3145 20.5084 38.8338 20.8281 38.3052 21.0458C37.7765 21.2635 37.21 21.3749 36.6382 21.3737C36.0024 21.3732 35.3743 21.233 34.7988 20.963C34.223 20.6929 33.7138 20.2996 33.307 19.8108L33.2655 19.76C32.9864 19.3832 32.7537 18.9739 32.5729 18.5411C32.3335 17.9979 32.0653 17.4677 31.7696 16.9529C31.6126 16.6874 31.4371 16.4358 31.2571 16.1865C31.1015 15.9636 30.9175 15.7618 30.71 15.5862C30.3014 15.2561 29.7866 15.1245 29.3064 15.4085C29.2833 15.4218 29.2609 15.4364 29.2395 15.4523C28.7454 15.7917 28.3992 16.4773 28.1591 17.0037C27.4665 18.495 27.0695 20.0232 26.677 21.593C26.6031 21.8954 26.5293 22.1978 26.46 22.5025L24.6248 28.5046L22.037 34.2112C21.1105 35.4068 19.9248 36.3766 18.5693 37.0477C17.2138 37.7185 15.7236 38.0734 14.2111 38.0849C7.92508 38.2188 4.9425 32.5445 4.9425 32.5445C1.36202 26.6717 0.307031 18.9243 0.0554039 16.4473C0.00230832 15.9325 3.00786e-07 15.6255 3.00786e-07 15.6255C-0.00029124 14.8496 0.211358 14.0884 0.612098 13.424C1.01284 12.7596 1.58744 12.2173 2.27388 11.8557C2.98364 11.4961 3.77347 11.3236 4.56854 11.3548C5.30823 11.3857 6.02793 11.6041 6.66005 11.9896C7.15123 12.2836 7.57578 12.6767 7.90661 13.1438C8.49759 13.9841 8.63148 15.0299 8.74922 16.0295C8.99369 18.2216 9.42226 20.3892 10.0304 22.5094Z" fill="url(#paint14_radial_19536_1442)"/>
<path d="M10.0304 22.5094C10.5142 24.2099 11.1733 25.8555 11.9973 27.4196C12.3736 28.1122 12.7499 28.8047 13.4332 29.241C13.5516 29.3154 13.682 29.3686 13.8187 29.398C14.8252 29.6127 15.377 28.8024 15.7325 28.0614C16.263 26.8987 16.6917 25.6923 17.0137 24.4555C17.076 24.2247 17.136 23.9938 17.196 23.763C17.3115 23.322 17.4269 22.8765 17.5262 22.431L21.9677 10.5652C22.8903 9.33647 24.0864 8.33939 25.4611 7.65301C26.8358 6.96663 28.3516 6.60979 29.8881 6.61078C32.1008 6.59716 34.2521 7.33815 35.9872 8.71152C38.8913 10.9092 40.6204 15.2377 40.6204 15.2377C40.8725 15.8012 41.0022 16.4117 41.0013 17.0291C41.0001 17.6008 40.8863 18.1667 40.6663 18.6945C40.4465 19.2223 40.1247 19.7016 39.7196 20.105C39.3145 20.5084 38.8338 20.8281 38.3052 21.0458C37.7765 21.2635 37.21 21.3749 36.6382 21.3737C36.0024 21.3732 35.3743 21.233 34.7988 20.963C34.223 20.6929 33.7138 20.2996 33.307 19.8108L33.2655 19.76C32.9864 19.3832 32.7537 18.9739 32.5729 18.5411C32.3335 17.9979 32.0653 17.4677 31.7696 16.9529C31.6126 16.6874 31.4371 16.4358 31.2571 16.1865C31.1015 15.9636 30.9175 15.7618 30.71 15.5862C30.3014 15.2561 29.7866 15.1245 29.3064 15.4085C29.2833 15.4218 29.2609 15.4364 29.2395 15.4523C28.7454 15.7917 28.3992 16.4773 28.1591 17.0037C27.4665 18.495 27.0695 20.0232 26.677 21.593C26.6031 21.8954 26.5293 22.1978 26.46 22.5025L24.6248 28.5046L22.037 34.2112C21.1105 35.4068 19.9248 36.3766 18.5693 37.0477C17.2138 37.7185 15.7236 38.0734 14.2111 38.0849C7.92508 38.2188 4.9425 32.5445 4.9425 32.5445C1.36202 26.6717 0.307031 18.9243 0.0554039 16.4473C0.00230832 15.9325 3.00786e-07 15.6255 3.00786e-07 15.6255C-0.00029124 14.8496 0.211358 14.0884 0.612098 13.424C1.01284 12.7596 1.58744 12.2173 2.27388 11.8557C2.98364 11.4961 3.77347 11.3236 4.56854 11.3548C5.30823 11.3857 6.02793 11.6041 6.66005 11.9896C7.15123 12.2836 7.57578 12.6767 7.90661 13.1438C8.49759 13.9841 8.63148 15.0299 8.74922 16.0295C8.99369 18.2216 9.42226 20.3892 10.0304 22.5094Z" fill="url(#paint15_radial_19536_1442)"/>
<path d="M10.0304 22.5094C10.5142 24.2099 11.1733 25.8555 11.9973 27.4196C12.3736 28.1122 12.7499 28.8047 13.4332 29.241C13.5516 29.3154 13.682 29.3686 13.8187 29.398C14.8252 29.6127 15.377 28.8024 15.7325 28.0614C16.263 26.8987 16.6917 25.6923 17.0137 24.4555C17.076 24.2247 17.136 23.9938 17.196 23.763C17.3115 23.322 17.4269 22.8765 17.5262 22.431L21.9677 10.5652C22.8903 9.33647 24.0864 8.33939 25.4611 7.65301C26.8358 6.96663 28.3516 6.60979 29.8881 6.61078C32.1008 6.59716 34.2521 7.33815 35.9872 8.71152C38.8913 10.9092 40.6204 15.2377 40.6204 15.2377C40.8725 15.8012 41.0022 16.4117 41.0013 17.0291C41.0001 17.6008 40.8863 18.1667 40.6663 18.6945C40.4465 19.2223 40.1247 19.7016 39.7196 20.105C39.3145 20.5084 38.8338 20.8281 38.3052 21.0458C37.7765 21.2635 37.21 21.3749 36.6382 21.3737C36.0024 21.3732 35.3743 21.233 34.7988 20.963C34.223 20.6929 33.7138 20.2996 33.307 19.8108L33.2655 19.76C32.9864 19.3832 32.7537 18.9739 32.5729 18.5411C32.3335 17.9979 32.0653 17.4677 31.7696 16.9529C31.6126 16.6874 31.4371 16.4358 31.2571 16.1865C31.1015 15.9636 30.9175 15.7618 30.71 15.5862C30.3014 15.2561 29.7866 15.1245 29.3064 15.4085C29.2833 15.4218 29.2609 15.4364 29.2395 15.4523C28.7454 15.7917 28.3992 16.4773 28.1591 17.0037C27.4665 18.495 27.0695 20.0232 26.677 21.593C26.6031 21.8954 26.5293 22.1978 26.46 22.5025L24.6248 28.5046L22.037 34.2112C21.1105 35.4068 19.9248 36.3766 18.5693 37.0477C17.2138 37.7185 15.7236 38.0734 14.2111 38.0849C7.92508 38.2188 4.9425 32.5445 4.9425 32.5445C1.36202 26.6717 0.307031 18.9243 0.0554039 16.4473C0.00230832 15.9325 3.00786e-07 15.6255 3.00786e-07 15.6255C-0.00029124 14.8496 0.211358 14.0884 0.612098 13.424C1.01284 12.7596 1.58744 12.2173 2.27388 11.8557C2.98364 11.4961 3.77347 11.3236 4.56854 11.3548C5.30823 11.3857 6.02793 11.6041 6.66005 11.9896C7.15123 12.2836 7.57578 12.6767 7.90661 13.1438C8.49759 13.9841 8.63148 15.0299 8.74922 16.0295C8.99369 18.2216 9.42226 20.3892 10.0304 22.5094Z" fill="url(#paint16_linear_19536_1442)"/>
<path d="M10.0304 22.5094C10.5142 24.2099 11.1733 25.8555 11.9973 27.4196C12.3736 28.1122 12.7499 28.8047 13.4332 29.241C13.5516 29.3154 13.682 29.3686 13.8187 29.398C14.8252 29.6127 15.377 28.8024 15.7325 28.0614C16.263 26.8987 16.6917 25.6923 17.0137 24.4555C17.076 24.2247 17.136 23.9938 17.196 23.763C17.3115 23.322 17.4269 22.8765 17.5262 22.431L21.9677 10.5652C22.8903 9.33647 24.0864 8.33939 25.4611 7.65301C26.8358 6.96663 28.3516 6.60979 29.8881 6.61078C32.1008 6.59716 34.2521 7.33815 35.9872 8.71152C38.8913 10.9092 40.6204 15.2377 40.6204 15.2377C40.8725 15.8012 41.0022 16.4117 41.0013 17.0291C41.0001 17.6008 40.8863 18.1667 40.6663 18.6945C40.4465 19.2223 40.1247 19.7016 39.7196 20.105C39.3145 20.5084 38.8338 20.8281 38.3052 21.0458C37.7765 21.2635 37.21 21.3749 36.6382 21.3737C36.0024 21.3732 35.3743 21.233 34.7988 20.963C34.223 20.6929 33.7138 20.2996 33.307 19.8108L33.2655 19.76C32.9864 19.3832 32.7537 18.9739 32.5729 18.5411C32.3335 17.9979 32.0653 17.4677 31.7696 16.9529C31.6126 16.6874 31.4371 16.4358 31.2571 16.1865C31.1015 15.9636 30.9175 15.7618 30.71 15.5862C30.3014 15.2561 29.7866 15.1245 29.3064 15.4085C29.2833 15.4218 29.2609 15.4364 29.2395 15.4523C28.7454 15.7917 28.3992 16.4773 28.1591 17.0037C27.4665 18.495 27.0695 20.0232 26.677 21.593C26.6031 21.8954 26.5293 22.1978 26.46 22.5025L24.6248 28.5046L22.037 34.2112C21.1105 35.4068 19.9248 36.3766 18.5693 37.0477C17.2138 37.7185 15.7236 38.0734 14.2111 38.0849C7.92508 38.2188 4.9425 32.5445 4.9425 32.5445C1.36202 26.6717 0.307031 18.9243 0.0554039 16.4473C0.00230832 15.9325 3.00786e-07 15.6255 3.00786e-07 15.6255C-0.00029124 14.8496 0.211358 14.0884 0.612098 13.424C1.01284 12.7596 1.58744 12.2173 2.27388 11.8557C2.98364 11.4961 3.77347 11.3236 4.56854 11.3548C5.30823 11.3857 6.02793 11.6041 6.66005 11.9896C7.15123 12.2836 7.57578 12.6767 7.90661 13.1438C8.49759 13.9841 8.63148 15.0299 8.74922 16.0295C8.99369 18.2216 9.42226 20.3892 10.0304 22.5094Z" fill="url(#paint17_linear_19536_1442)"/>
<path d="M10.0304 22.5094C10.5142 24.2099 11.1733 25.8555 11.9973 27.4196C12.3736 28.1122 12.7499 28.8047 13.4332 29.241C13.5516 29.3154 13.682 29.3686 13.8187 29.398C14.8252 29.6127 15.377 28.8024 15.7325 28.0614C16.263 26.8987 16.6917 25.6923 17.0137 24.4555C17.076 24.2247 17.136 23.9938 17.196 23.763C17.3115 23.322 17.4269 22.8765 17.5262 22.431L21.9677 10.5652C22.8903 9.33647 24.0864 8.33939 25.4611 7.65301C26.8358 6.96663 28.3516 6.60979 29.8881 6.61078C32.1008 6.59716 34.2521 7.33815 35.9872 8.71152C38.8913 10.9092 40.6204 15.2377 40.6204 15.2377C40.8725 15.8012 41.0022 16.4117 41.0013 17.0291C41.0001 17.6008 40.8863 18.1667 40.6663 18.6945C40.4465 19.2223 40.1247 19.7016 39.7196 20.105C39.3145 20.5084 38.8338 20.8281 38.3052 21.0458C37.7765 21.2635 37.21 21.3749 36.6382 21.3737C36.0024 21.3732 35.3743 21.233 34.7988 20.963C34.223 20.6929 33.7138 20.2996 33.307 19.8108L33.2655 19.76C32.9864 19.3832 32.7537 18.9739 32.5729 18.5411C32.3335 17.9979 32.0653 17.4677 31.7696 16.9529C31.6126 16.6874 31.4371 16.4358 31.2571 16.1865C31.1015 15.9636 30.9175 15.7618 30.71 15.5862C30.3014 15.2561 29.7866 15.1245 29.3064 15.4085C29.2833 15.4218 29.2609 15.4364 29.2395 15.4523C28.7454 15.7917 28.3992 16.4773 28.1591 17.0037C27.4665 18.495 27.0695 20.0232 26.677 21.593C26.6031 21.8954 26.5293 22.1978 26.46 22.5025L24.6248 28.5046L22.037 34.2112C21.1105 35.4068 19.9248 36.3766 18.5693 37.0477C17.2138 37.7185 15.7236 38.0734 14.2111 38.0849C7.92508 38.2188 4.9425 32.5445 4.9425 32.5445C1.36202 26.6717 0.307031 18.9243 0.0554039 16.4473C0.00230832 15.9325 3.00786e-07 15.6255 3.00786e-07 15.6255C-0.00029124 14.8496 0.211358 14.0884 0.612098 13.424C1.01284 12.7596 1.58744 12.2173 2.27388 11.8557C2.98364 11.4961 3.77347 11.3236 4.56854 11.3548C5.30823 11.3857 6.02793 11.6041 6.66005 11.9896C7.15123 12.2836 7.57578 12.6767 7.90661 13.1438C8.49759 13.9841 8.63148 15.0299 8.74922 16.0295C8.99369 18.2216 9.42226 20.3892 10.0304 22.5094Z" fill="url(#paint18_linear_19536_1442)"/>
<path d="M10.0304 22.5094C10.5142 24.2099 11.1733 25.8555 11.9973 27.4196C12.3736 28.1122 12.7499 28.8047 13.4332 29.241C13.5516 29.3154 13.682 29.3686 13.8187 29.398C14.8252 29.6127 15.377 28.8024 15.7325 28.0614C16.263 26.8987 16.6917 25.6923 17.0137 24.4555C17.076 24.2247 17.136 23.9938 17.196 23.763C17.3115 23.322 17.4269 22.8765 17.5262 22.431L21.9677 10.5652C22.8903 9.33647 24.0864 8.33939 25.4611 7.65301C26.8358 6.96663 28.3516 6.60979 29.8881 6.61078C32.1008 6.59716 34.2521 7.33815 35.9872 8.71152C38.8913 10.9092 40.6204 15.2377 40.6204 15.2377C40.8725 15.8012 41.0022 16.4117 41.0013 17.0291C41.0001 17.6008 40.8863 18.1667 40.6663 18.6945C40.4465 19.2223 40.1247 19.7016 39.7196 20.105C39.3145 20.5084 38.8338 20.8281 38.3052 21.0458C37.7765 21.2635 37.21 21.3749 36.6382 21.3737C36.0024 21.3732 35.3743 21.233 34.7988 20.963C34.223 20.6929 33.7138 20.2996 33.307 19.8108L33.2655 19.76C32.9864 19.3832 32.7537 18.9739 32.5729 18.5411C32.3335 17.9979 32.0653 17.4677 31.7696 16.9529C31.6126 16.6874 31.4371 16.4358 31.2571 16.1865C31.1015 15.9636 30.9175 15.7618 30.71 15.5862C30.3014 15.2561 29.7866 15.1245 29.3064 15.4085C29.2833 15.4218 29.2609 15.4364 29.2395 15.4523C28.7454 15.7917 28.3992 16.4773 28.1591 17.0037C27.4665 18.495 27.0695 20.0232 26.677 21.593C26.6031 21.8954 26.5293 22.1978 26.46 22.5025L24.6248 28.5046L22.037 34.2112C21.1105 35.4068 19.9248 36.3766 18.5693 37.0477C17.2138 37.7185 15.7236 38.0734 14.2111 38.0849C7.92508 38.2188 4.9425 32.5445 4.9425 32.5445C1.36202 26.6717 0.307031 18.9243 0.0554039 16.4473C0.00230832 15.9325 3.00786e-07 15.6255 3.00786e-07 15.6255C-0.00029124 14.8496 0.211358 14.0884 0.612098 13.424C1.01284 12.7596 1.58744 12.2173 2.27388 11.8557C2.98364 11.4961 3.77347 11.3236 4.56854 11.3548C5.30823 11.3857 6.02793 11.6041 6.66005 11.9896C7.15123 12.2836 7.57578 12.6767 7.90661 13.1438C8.49759 13.9841 8.63148 15.0299 8.74922 16.0295C8.99369 18.2216 9.42226 20.3892 10.0304 22.5094Z" fill="url(#paint19_linear_19536_1442)"/>
<path d="M19.1445 18.1071L21.9678 10.5676C22.8904 9.33879 24.0866 8.34171 25.4613 7.65533C26.836 6.96895 28.3518 6.61211 29.8883 6.6131C32.101 6.59948 34.2523 7.34047 35.9874 8.71384C38.8915 10.9115 40.6206 15.24 40.6206 15.24C40.8727 15.8035 41.0024 16.4141 41.0015 17.0314C41.0003 17.6031 40.8865 18.169 40.6665 18.6968C40.4465 19.2246 40.1249 19.7039 39.7198 20.1073C39.3146 20.5107 38.834 20.8304 38.3051 21.0481C37.7765 21.2658 37.2102 21.3772 36.6384 21.376C36.0026 21.3756 35.3745 21.2353 34.799 20.9653C34.2232 20.6952 33.714 20.3019 33.3072 19.8131L33.2657 19.7623C32.9863 19.3855 32.7539 18.9762 32.5731 18.5434C32.3335 18.0002 32.0655 17.47 31.7698 16.9552C31.6128 16.6897 31.4373 16.4381 31.2573 16.1888C31.1017 15.9659 30.9177 15.7642 30.7102 15.5886C30.3016 15.2584 29.7868 15.1269 29.3066 15.4108C29.2835 15.4241 29.2611 15.4387 29.2396 15.4547C28.7456 15.794 28.3993 16.4796 28.1593 17.006C27.4667 18.4973 27.0696 20.0255 26.6772 21.5953C26.6033 21.8977 26.5295 22.2001 26.4602 22.5048L24.6249 28.5069L19.1445 18.1071Z" fill="url(#paint20_linear_19536_1442)"/>
<path d="M39.6558 11.3732C39.2889 11.3724 38.9237 11.4181 38.5685 11.5094C39.3783 12.6795 40.0658 13.9296 40.6207 15.2399C40.8728 15.8035 41.0025 16.414 41.0016 17.0313C41.0005 17.6031 40.8867 18.169 40.6667 18.6968C40.4467 19.2245 40.1251 19.7038 39.7199 20.1073C39.3148 20.5107 38.8342 20.8304 38.3053 21.048C37.7766 21.2657 37.2104 21.3771 36.6385 21.3759C35.8657 21.3745 35.1071 21.1673 34.4408 20.7757L33.993 22.4309C33.1804 25.148 32.6079 26.1984 32.6079 26.1984C32.2926 26.935 31.9172 27.6446 31.486 28.3199C31.1882 28.7608 30.8073 29.2041 30.2855 29.3726C30.1041 29.4358 29.9102 29.4548 29.72 29.428C29.514 29.403 29.3153 29.3363 29.1359 29.2318C28.7929 28.9738 28.52 28.6341 28.3418 28.2437C28.1211 27.8103 27.923 27.3657 27.7485 26.9117C27.363 25.9745 26.7674 23.666 26.7674 23.666L26.151 21.249L25.5346 18.8135L25.096 17.2137C23.9418 13.0468 22.3443 10.9969 22.3443 10.9969C21.0887 9.2065 19.3098 7.84854 17.2517 7.10937C14.8647 6.25292 12.36 6.73539 12.36 6.73539C8.43553 7.50643 6.37404 10.1981 5.4668 11.4932C5.88203 11.6016 6.27937 11.7696 6.64644 11.9919C7.13765 12.2858 7.5622 12.679 7.89303 13.1461C8.48401 13.9864 8.6179 15.0322 8.73564 16.0317C8.98329 18.1981 9.41108 20.3402 10.0145 22.4355C11.3442 18.0263 12.9394 15.9717 12.9394 15.9717C13.1177 15.7503 13.3314 15.5599 13.572 15.4084C13.6972 15.3316 13.8372 15.282 13.9829 15.263C14.2529 15.2371 14.5237 15.3029 14.7516 15.45C14.7933 15.4775 14.8327 15.5083 14.8693 15.5423C15.0778 15.7272 15.2569 15.9429 15.4003 16.1818C15.7324 16.7754 16.0202 17.3926 16.2614 18.0286C16.76 19.4322 17.1848 21.1474 17.1848 21.1474L18.4544 26.1522C19.3778 29.5549 20.1604 31.2078 20.1604 31.2078C22.088 35.6217 25.036 36.8637 25.036 36.8637C26.4712 37.6313 28.0673 38.0489 29.6946 38.0826C31.248 38.1248 32.7887 37.7931 34.1869 37.1153C35.72 36.3613 37.0649 35.2736 38.1229 33.9319C38.8362 33.1054 39.8866 31.0924 39.8866 31.0924C41.0448 28.7846 41.9541 26.3601 42.5991 23.8599C43.0112 22.3022 43.3418 20.7242 43.5895 19.1321C43.7141 18.3425 43.8318 17.5484 43.9265 16.752C44.0445 15.9978 44.0209 15.2283 43.8572 14.4827C43.8228 14.3487 43.7806 14.2169 43.7303 14.088C43.3593 13.1524 42.6714 12.377 41.7865 11.8972C41.1307 11.5485 40.3984 11.3685 39.6558 11.3732Z" fill="url(#paint21_linear_19536_1442)"/>
<path d="M39.6558 11.3732C39.2889 11.3724 38.9237 11.4181 38.5685 11.5094C39.3783 12.6795 40.0658 13.9296 40.6207 15.2399C40.8728 15.8035 41.0025 16.414 41.0016 17.0313C41.0005 17.6031 40.8867 18.169 40.6667 18.6968C40.4467 19.2245 40.1251 19.7038 39.7199 20.1073C39.3148 20.5107 38.8342 20.8304 38.3053 21.048C37.7766 21.2657 37.2104 21.3771 36.6385 21.3759C35.8657 21.3745 35.1071 21.1673 34.4408 20.7757L33.993 22.4309C33.1804 25.148 32.6079 26.1984 32.6079 26.1984C32.2926 26.935 31.9172 27.6446 31.486 28.3199C31.1882 28.7608 30.8073 29.2041 30.2855 29.3726C30.1041 29.4358 29.9102 29.4548 29.72 29.428C29.514 29.403 29.3153 29.3363 29.1359 29.2318C28.7929 28.9738 28.52 28.6341 28.3418 28.2437C28.1211 27.8103 27.923 27.3657 27.7485 26.9117C27.363 25.9745 26.7674 23.666 26.7674 23.666L26.151 21.249L25.5346 18.8135L25.096 17.2137C23.9418 13.0468 22.3443 10.9969 22.3443 10.9969C21.0887 9.2065 19.3098 7.84854 17.2517 7.10937C14.8647 6.25292 12.36 6.73539 12.36 6.73539C8.43553 7.50643 6.37404 10.1981 5.4668 11.4932C5.88203 11.6016 6.27937 11.7696 6.64644 11.9919C7.13765 12.2858 7.5622 12.679 7.89303 13.1461C8.48401 13.9864 8.6179 15.0322 8.73564 16.0317C8.98329 18.1981 9.41108 20.3402 10.0145 22.4355C11.3442 18.0263 12.9394 15.9717 12.9394 15.9717C13.1177 15.7503 13.3314 15.5599 13.572 15.4084C13.6972 15.3316 13.8372 15.282 13.9829 15.263C14.2529 15.2371 14.5237 15.3029 14.7516 15.45C14.7933 15.4775 14.8327 15.5083 14.8693 15.5423C15.0778 15.7272 15.2569 15.9429 15.4003 16.1818C15.7324 16.7754 16.0202 17.3926 16.2614 18.0286C16.76 19.4322 17.1848 21.1474 17.1848 21.1474L18.4544 26.1522C19.3778 29.5549 20.1604 31.2078 20.1604 31.2078C22.088 35.6217 25.036 36.8637 25.036 36.8637C26.4712 37.6313 28.0673 38.0489 29.6946 38.0826C31.248 38.1248 32.7887 37.7931 34.1869 37.1153C35.72 36.3613 37.0649 35.2736 38.1229 33.9319C38.8362 33.1054 39.8866 31.0924 39.8866 31.0924C41.0448 28.7846 41.9541 26.3601 42.5991 23.8599C43.0112 22.3022 43.3418 20.7242 43.5895 19.1321C43.7141 18.3425 43.8318 17.5484 43.9265 16.752C44.0445 15.9978 44.0209 15.2283 43.8572 14.4827C43.8228 14.3487 43.7806 14.2169 43.7303 14.088C43.3593 13.1524 42.6714 12.377 41.7865 11.8972C41.1307 11.5485 40.3984 11.3685 39.6558 11.3732Z" fill="url(#paint22_radial_19536_1442)"/>
<path d="M39.6558 11.3732C39.2889 11.3724 38.9237 11.4181 38.5685 11.5094C39.3783 12.6795 40.0658 13.9296 40.6207 15.2399C40.8728 15.8035 41.0025 16.414 41.0016 17.0313C41.0005 17.6031 40.8867 18.169 40.6667 18.6968C40.4467 19.2245 40.1251 19.7038 39.7199 20.1073C39.3148 20.5107 38.8342 20.8304 38.3053 21.048C37.7766 21.2657 37.2104 21.3771 36.6385 21.3759C35.8657 21.3745 35.1071 21.1673 34.4408 20.7757L33.993 22.4309C33.1804 25.148 32.6079 26.1984 32.6079 26.1984C32.2926 26.935 31.9172 27.6446 31.486 28.3199C31.1882 28.7608 30.8073 29.2041 30.2855 29.3726C30.1041 29.4358 29.9102 29.4548 29.72 29.428C29.514 29.403 29.3153 29.3363 29.1359 29.2318C28.7929 28.9738 28.52 28.6341 28.3418 28.2437C28.1211 27.8103 27.923 27.3657 27.7485 26.9117C27.363 25.9745 26.7674 23.666 26.7674 23.666L26.151 21.249L25.5346 18.8135L25.096 17.2137C23.9418 13.0468 22.3443 10.9969 22.3443 10.9969C21.0887 9.2065 19.3098 7.84854 17.2517 7.10937C14.8647 6.25292 12.36 6.73539 12.36 6.73539C8.43553 7.50643 6.37404 10.1981 5.4668 11.4932C5.88203 11.6016 6.27937 11.7696 6.64644 11.9919C7.13765 12.2858 7.5622 12.679 7.89303 13.1461C8.48401 13.9864 8.6179 15.0322 8.73564 16.0317C8.98329 18.1981 9.41108 20.3402 10.0145 22.4355C11.3442 18.0263 12.9394 15.9717 12.9394 15.9717C13.1177 15.7503 13.3314 15.5599 13.572 15.4084C13.6972 15.3316 13.8372 15.282 13.9829 15.263C14.2529 15.2371 14.5237 15.3029 14.7516 15.45C14.7933 15.4775 14.8327 15.5083 14.8693 15.5423C15.0778 15.7272 15.2569 15.9429 15.4003 16.1818C15.7324 16.7754 16.0202 17.3926 16.2614 18.0286C16.76 19.4322 17.1848 21.1474 17.1848 21.1474L18.4544 26.1522C19.3778 29.5549 20.1604 31.2078 20.1604 31.2078C22.088 35.6217 25.036 36.8637 25.036 36.8637C26.4712 37.6313 28.0673 38.0489 29.6946 38.0826C31.248 38.1248 32.7887 37.7931 34.1869 37.1153C35.72 36.3613 37.0649 35.2736 38.1229 33.9319C38.8362 33.1054 39.8866 31.0924 39.8866 31.0924C41.0448 28.7846 41.9541 26.3601 42.5991 23.8599C43.0112 22.3022 43.3418 20.7242 43.5895 19.1321C43.7141 18.3425 43.8318 17.5484 43.9265 16.752C44.0445 15.9978 44.0209 15.2283 43.8572 14.4827C43.8228 14.3487 43.7806 14.2169 43.7303 14.088C43.3593 13.1524 42.6714 12.377 41.7865 11.8972C41.1307 11.5485 40.3984 11.3685 39.6558 11.3732Z" fill="url(#paint23_radial_19536_1442)"/>
<path d="M39.6558 11.3732C39.2889 11.3724 38.9237 11.4181 38.5685 11.5094C39.3783 12.6795 40.0658 13.9296 40.6207 15.2399C40.8728 15.8035 41.0025 16.414 41.0016 17.0313C41.0005 17.6031 40.8867 18.169 40.6667 18.6968C40.4467 19.2245 40.1251 19.7038 39.7199 20.1073C39.3148 20.5107 38.8342 20.8304 38.3053 21.048C37.7766 21.2657 37.2104 21.3771 36.6385 21.3759C35.8657 21.3745 35.1071 21.1673 34.4408 20.7757L33.993 22.4309C33.1804 25.148 32.6079 26.1984 32.6079 26.1984C32.2926 26.935 31.9172 27.6446 31.486 28.3199C31.1882 28.7608 30.8073 29.2041 30.2855 29.3726C30.1041 29.4358 29.9102 29.4548 29.72 29.428C29.514 29.403 29.3153 29.3363 29.1359 29.2318C28.7929 28.9738 28.52 28.6341 28.3418 28.2437C28.1211 27.8103 27.923 27.3657 27.7485 26.9117C27.363 25.9745 26.7674 23.666 26.7674 23.666L26.151 21.249L25.5346 18.8135L25.096 17.2137C23.9418 13.0468 22.3443 10.9969 22.3443 10.9969C21.0887 9.2065 19.3098 7.84854 17.2517 7.10937C14.8647 6.25292 12.36 6.73539 12.36 6.73539C8.43553 7.50643 6.37404 10.1981 5.4668 11.4932C5.88203 11.6016 6.27937 11.7696 6.64644 11.9919C7.13765 12.2858 7.5622 12.679 7.89303 13.1461C8.48401 13.9864 8.6179 15.0322 8.73564 16.0317C8.98329 18.1981 9.41108 20.3402 10.0145 22.4355C11.3442 18.0263 12.9394 15.9717 12.9394 15.9717C13.1177 15.7503 13.3314 15.5599 13.572 15.4084C13.6972 15.3316 13.8372 15.282 13.9829 15.263C14.2529 15.2371 14.5237 15.3029 14.7516 15.45C14.7933 15.4775 14.8327 15.5083 14.8693 15.5423C15.0778 15.7272 15.2569 15.9429 15.4003 16.1818C15.7324 16.7754 16.0202 17.3926 16.2614 18.0286C16.76 19.4322 17.1848 21.1474 17.1848 21.1474L18.4544 26.1522C19.3778 29.5549 20.1604 31.2078 20.1604 31.2078C22.088 35.6217 25.036 36.8637 25.036 36.8637C26.4712 37.6313 28.0673 38.0489 29.6946 38.0826C31.248 38.1248 32.7887 37.7931 34.1869 37.1153C35.72 36.3613 37.0649 35.2736 38.1229 33.9319C38.8362 33.1054 39.8866 31.0924 39.8866 31.0924C41.0448 28.7846 41.9541 26.3601 42.5991 23.8599C43.0112 22.3022 43.3418 20.7242 43.5895 19.1321C43.7141 18.3425 43.8318 17.5484 43.9265 16.752C44.0445 15.9978 44.0209 15.2283 43.8572 14.4827C43.8228 14.3487 43.7806 14.2169 43.7303 14.088C43.3593 13.1524 42.6714 12.377 41.7865 11.8972C41.1307 11.5485 40.3984 11.3685 39.6558 11.3732Z" fill="url(#paint24_radial_19536_1442)"/>
<path d="M39.6558 11.3732C39.2889 11.3724 38.9237 11.4181 38.5685 11.5094C39.3783 12.6795 40.0658 13.9296 40.6207 15.2399C40.8728 15.8035 41.0025 16.414 41.0016 17.0313C41.0005 17.6031 40.8867 18.169 40.6667 18.6968C40.4467 19.2245 40.1251 19.7038 39.7199 20.1073C39.3148 20.5107 38.8342 20.8304 38.3053 21.048C37.7766 21.2657 37.2104 21.3771 36.6385 21.3759C35.8657 21.3745 35.1071 21.1673 34.4408 20.7757L33.993 22.4309C33.1804 25.148 32.6079 26.1984 32.6079 26.1984C32.2926 26.935 31.9172 27.6446 31.486 28.3199C31.1882 28.7608 30.8073 29.2041 30.2855 29.3726C30.1041 29.4358 29.9102 29.4548 29.72 29.428C29.514 29.403 29.3153 29.3363 29.1359 29.2318C28.7929 28.9738 28.52 28.6341 28.3418 28.2437C28.1211 27.8103 27.923 27.3657 27.7485 26.9117C27.363 25.9745 26.7674 23.666 26.7674 23.666L26.151 21.249L25.5346 18.8135L25.096 17.2137C23.9418 13.0468 22.3443 10.9969 22.3443 10.9969C21.0887 9.2065 19.3098 7.84854 17.2517 7.10937C14.8647 6.25292 12.36 6.73539 12.36 6.73539C8.43553 7.50643 6.37404 10.1981 5.4668 11.4932C5.88203 11.6016 6.27937 11.7696 6.64644 11.9919C7.13765 12.2858 7.5622 12.679 7.89303 13.1461C8.48401 13.9864 8.6179 15.0322 8.73564 16.0317C8.98329 18.1981 9.41108 20.3402 10.0145 22.4355C11.3442 18.0263 12.9394 15.9717 12.9394 15.9717C13.1177 15.7503 13.3314 15.5599 13.572 15.4084C13.6972 15.3316 13.8372 15.282 13.9829 15.263C14.2529 15.2371 14.5237 15.3029 14.7516 15.45C14.7933 15.4775 14.8327 15.5083 14.8693 15.5423C15.0778 15.7272 15.2569 15.9429 15.4003 16.1818C15.7324 16.7754 16.0202 17.3926 16.2614 18.0286C16.76 19.4322 17.1848 21.1474 17.1848 21.1474L18.4544 26.1522C19.3778 29.5549 20.1604 31.2078 20.1604 31.2078C22.088 35.6217 25.036 36.8637 25.036 36.8637C26.4712 37.6313 28.0673 38.0489 29.6946 38.0826C31.248 38.1248 32.7887 37.7931 34.1869 37.1153C35.72 36.3613 37.0649 35.2736 38.1229 33.9319C38.8362 33.1054 39.8866 31.0924 39.8866 31.0924C41.0448 28.7846 41.9541 26.3601 42.5991 23.8599C43.0112 22.3022 43.3418 20.7242 43.5895 19.1321C43.7141 18.3425 43.8318 17.5484 43.9265 16.752C44.0445 15.9978 44.0209 15.2283 43.8572 14.4827C43.8228 14.3487 43.7806 14.2169 43.7303 14.088C43.3593 13.1524 42.6714 12.377 41.7865 11.8972C41.1307 11.5485 40.3984 11.3685 39.6558 11.3732Z" fill="url(#paint25_radial_19536_1442)"/>
<path d="M39.6558 11.3732C39.2889 11.3724 38.9237 11.4181 38.5685 11.5094C39.3783 12.6795 40.0658 13.9296 40.6207 15.2399C40.8728 15.8035 41.0025 16.414 41.0016 17.0313C41.0005 17.6031 40.8867 18.169 40.6667 18.6968C40.4467 19.2245 40.1251 19.7038 39.7199 20.1073C39.3148 20.5107 38.8342 20.8304 38.3053 21.048C37.7766 21.2657 37.2104 21.3771 36.6385 21.3759C35.8657 21.3745 35.1071 21.1673 34.4408 20.7757L33.993 22.4309C33.1804 25.148 32.6079 26.1984 32.6079 26.1984C32.2926 26.935 31.9172 27.6446 31.486 28.3199C31.1882 28.7608 30.8073 29.2041 30.2855 29.3726C30.1041 29.4358 29.9102 29.4548 29.72 29.428C29.514 29.403 29.3153 29.3363 29.1359 29.2318C28.7929 28.9738 28.52 28.6341 28.3418 28.2437C28.1211 27.8103 27.923 27.3657 27.7485 26.9117C27.363 25.9745 26.7674 23.666 26.7674 23.666L26.151 21.249L25.5346 18.8135L25.096 17.2137C23.9418 13.0468 22.3443 10.9969 22.3443 10.9969C21.0887 9.2065 19.3098 7.84854 17.2517 7.10937C14.8647 6.25292 12.36 6.73539 12.36 6.73539C8.43553 7.50643 6.37404 10.1981 5.4668 11.4932C5.88203 11.6016 6.27937 11.7696 6.64644 11.9919C7.13765 12.2858 7.5622 12.679 7.89303 13.1461C8.48401 13.9864 8.6179 15.0322 8.73564 16.0317C8.98329 18.1981 9.41108 20.3402 10.0145 22.4355C11.3442 18.0263 12.9394 15.9717 12.9394 15.9717C13.1177 15.7503 13.3314 15.5599 13.572 15.4084C13.6972 15.3316 13.8372 15.282 13.9829 15.263C14.2529 15.2371 14.5237 15.3029 14.7516 15.45C14.7933 15.4775 14.8327 15.5083 14.8693 15.5423C15.0778 15.7272 15.2569 15.9429 15.4003 16.1818C15.7324 16.7754 16.0202 17.3926 16.2614 18.0286C16.76 19.4322 17.1848 21.1474 17.1848 21.1474L18.4544 26.1522C19.3778 29.5549 20.1604 31.2078 20.1604 31.2078C22.088 35.6217 25.036 36.8637 25.036 36.8637C26.4712 37.6313 28.0673 38.0489 29.6946 38.0826C31.248 38.1248 32.7887 37.7931 34.1869 37.1153C35.72 36.3613 37.0649 35.2736 38.1229 33.9319C38.8362 33.1054 39.8866 31.0924 39.8866 31.0924C41.0448 28.7846 41.9541 26.3601 42.5991 23.8599C43.0112 22.3022 43.3418 20.7242 43.5895 19.1321C43.7141 18.3425 43.8318 17.5484 43.9265 16.752C44.0445 15.9978 44.0209 15.2283 43.8572 14.4827C43.8228 14.3487 43.7806 14.2169 43.7303 14.088C43.3593 13.1524 42.6714 12.377 41.7865 11.8972C41.1307 11.5485 40.3984 11.3685 39.6558 11.3732Z" fill="url(#paint26_radial_19536_1442)"/>
<path d="M39.6558 11.3732C39.2889 11.3724 38.9237 11.4181 38.5685 11.5094C39.3783 12.6795 40.0658 13.9296 40.6207 15.2399C40.8728 15.8035 41.0025 16.414 41.0016 17.0313C41.0005 17.6031 40.8867 18.169 40.6667 18.6968C40.4467 19.2245 40.1251 19.7038 39.7199 20.1073C39.3148 20.5107 38.8342 20.8304 38.3053 21.048C37.7766 21.2657 37.2104 21.3771 36.6385 21.3759C35.8657 21.3745 35.1071 21.1673 34.4408 20.7757L33.993 22.4309C33.1804 25.148 32.6079 26.1984 32.6079 26.1984C32.2926 26.935 31.9172 27.6446 31.486 28.3199C31.1882 28.7608 30.8073 29.2041 30.2855 29.3726C30.1041 29.4358 29.9102 29.4548 29.72 29.428C29.514 29.403 29.3153 29.3363 29.1359 29.2318C28.7929 28.9738 28.52 28.6341 28.3418 28.2437C28.1211 27.8103 27.923 27.3657 27.7485 26.9117C27.363 25.9745 26.7674 23.666 26.7674 23.666L26.151 21.249L25.5346 18.8135L25.096 17.2137C23.9418 13.0468 22.3443 10.9969 22.3443 10.9969C21.0887 9.2065 19.3098 7.84854 17.2517 7.10937C14.8647 6.25292 12.36 6.73539 12.36 6.73539C8.43553 7.50643 6.37404 10.1981 5.4668 11.4932C5.88203 11.6016 6.27937 11.7696 6.64644 11.9919C7.13765 12.2858 7.5622 12.679 7.89303 13.1461C8.48401 13.9864 8.6179 15.0322 8.73564 16.0317C8.98329 18.1981 9.41108 20.3402 10.0145 22.4355C11.3442 18.0263 12.9394 15.9717 12.9394 15.9717C13.1177 15.7503 13.3314 15.5599 13.572 15.4084C13.6972 15.3316 13.8372 15.282 13.9829 15.263C14.2529 15.2371 14.5237 15.3029 14.7516 15.45C14.7933 15.4775 14.8327 15.5083 14.8693 15.5423C15.0778 15.7272 15.2569 15.9429 15.4003 16.1818C15.7324 16.7754 16.0202 17.3926 16.2614 18.0286C16.76 19.4322 17.1848 21.1474 17.1848 21.1474L18.4544 26.1522C19.3778 29.5549 20.1604 31.2078 20.1604 31.2078C22.088 35.6217 25.036 36.8637 25.036 36.8637C26.4712 37.6313 28.0673 38.0489 29.6946 38.0826C31.248 38.1248 32.7887 37.7931 34.1869 37.1153C35.72 36.3613 37.0649 35.2736 38.1229 33.9319C38.8362 33.1054 39.8866 31.0924 39.8866 31.0924C41.0448 28.7846 41.9541 26.3601 42.5991 23.8599C43.0112 22.3022 43.3418 20.7242 43.5895 19.1321C43.7141 18.3425 43.8318 17.5484 43.9265 16.752C44.0445 15.9978 44.0209 15.2283 43.8572 14.4827C43.8228 14.3487 43.7806 14.2169 43.7303 14.088C43.3593 13.1524 42.6714 12.377 41.7865 11.8972C41.1307 11.5485 40.3984 11.3685 39.6558 11.3732Z" fill="url(#paint27_radial_19536_1442)"/>
<path d="M39.6558 11.3732C39.2889 11.3724 38.9237 11.4181 38.5685 11.5094C39.3783 12.6795 40.0658 13.9296 40.6207 15.2399C40.8728 15.8035 41.0025 16.414 41.0016 17.0313C41.0005 17.6031 40.8867 18.169 40.6667 18.6968C40.4467 19.2245 40.1251 19.7038 39.7199 20.1073C39.3148 20.5107 38.8342 20.8304 38.3053 21.048C37.7766 21.2657 37.2104 21.3771 36.6385 21.3759C35.8657 21.3745 35.1071 21.1673 34.4408 20.7757L33.993 22.4309C33.1804 25.148 32.6079 26.1984 32.6079 26.1984C32.2926 26.935 31.9172 27.6446 31.486 28.3199C31.1882 28.7608 30.8073 29.2041 30.2855 29.3726C30.1041 29.4358 29.9102 29.4548 29.72 29.428C29.514 29.403 29.3153 29.3363 29.1359 29.2318C28.7929 28.9738 28.52 28.6341 28.3418 28.2437C28.1211 27.8103 27.923 27.3657 27.7485 26.9117C27.363 25.9745 26.7674 23.666 26.7674 23.666L26.151 21.249L25.5346 18.8135L25.096 17.2137C23.9418 13.0468 22.3443 10.9969 22.3443 10.9969C21.0887 9.2065 19.3098 7.84854 17.2517 7.10937C14.8647 6.25292 12.36 6.73539 12.36 6.73539C8.43553 7.50643 6.37404 10.1981 5.4668 11.4932C5.88203 11.6016 6.27937 11.7696 6.64644 11.9919C7.13765 12.2858 7.5622 12.679 7.89303 13.1461C8.48401 13.9864 8.6179 15.0322 8.73564 16.0317C8.98329 18.1981 9.41108 20.3402 10.0145 22.4355C11.3442 18.0263 12.9394 15.9717 12.9394 15.9717C13.1177 15.7503 13.3314 15.5599 13.572 15.4084C13.6972 15.3316 13.8372 15.282 13.9829 15.263C14.2529 15.2371 14.5237 15.3029 14.7516 15.45C14.7933 15.4775 14.8327 15.5083 14.8693 15.5423C15.0778 15.7272 15.2569 15.9429 15.4003 16.1818C15.7324 16.7754 16.0202 17.3926 16.2614 18.0286C16.76 19.4322 17.1848 21.1474 17.1848 21.1474L18.4544 26.1522C19.3778 29.5549 20.1604 31.2078 20.1604 31.2078C22.088 35.6217 25.036 36.8637 25.036 36.8637C26.4712 37.6313 28.0673 38.0489 29.6946 38.0826C31.248 38.1248 32.7887 37.7931 34.1869 37.1153C35.72 36.3613 37.0649 35.2736 38.1229 33.9319C38.8362 33.1054 39.8866 31.0924 39.8866 31.0924C41.0448 28.7846 41.9541 26.3601 42.5991 23.8599C43.0112 22.3022 43.3418 20.7242 43.5895 19.1321C43.7141 18.3425 43.8318 17.5484 43.9265 16.752C44.0445 15.9978 44.0209 15.2283 43.8572 14.4827C43.8228 14.3487 43.7806 14.2169 43.7303 14.088C43.3593 13.1524 42.6714 12.377 41.7865 11.8972C41.1307 11.5485 40.3984 11.3685 39.6558 11.3732Z" fill="url(#paint28_radial_19536_1442)"/>
<path d="M39.6558 11.3732C39.2889 11.3724 38.9237 11.4181 38.5685 11.5094C39.3783 12.6795 40.0658 13.9296 40.6207 15.2399C40.8728 15.8035 41.0025 16.414 41.0016 17.0313C41.0005 17.6031 40.8867 18.169 40.6667 18.6968C40.4467 19.2245 40.1251 19.7038 39.7199 20.1073C39.3148 20.5107 38.8342 20.8304 38.3053 21.048C37.7766 21.2657 37.2104 21.3771 36.6385 21.3759C35.8657 21.3745 35.1071 21.1673 34.4408 20.7757L33.993 22.4309C33.1804 25.148 32.6079 26.1984 32.6079 26.1984C32.2926 26.935 31.9172 27.6446 31.486 28.3199C31.1882 28.7608 30.8073 29.2041 30.2855 29.3726C30.1041 29.4358 29.9102 29.4548 29.72 29.428C29.514 29.403 29.3153 29.3363 29.1359 29.2318C28.7929 28.9738 28.52 28.6341 28.3418 28.2437C28.1211 27.8103 27.923 27.3657 27.7485 26.9117C27.363 25.9745 26.7674 23.666 26.7674 23.666L26.151 21.249L25.5346 18.8135L25.096 17.2137C23.9418 13.0468 22.3443 10.9969 22.3443 10.9969C21.0887 9.2065 19.3098 7.84854 17.2517 7.10937C14.8647 6.25292 12.36 6.73539 12.36 6.73539C8.43553 7.50643 6.37404 10.1981 5.4668 11.4932C5.88203 11.6016 6.27937 11.7696 6.64644 11.9919C7.13765 12.2858 7.5622 12.679 7.89303 13.1461C8.48401 13.9864 8.6179 15.0322 8.73564 16.0317C8.98329 18.1981 9.41108 20.3402 10.0145 22.4355C11.3442 18.0263 12.9394 15.9717 12.9394 15.9717C13.1177 15.7503 13.3314 15.5599 13.572 15.4084C13.6972 15.3316 13.8372 15.282 13.9829 15.263C14.2529 15.2371 14.5237 15.3029 14.7516 15.45C14.7933 15.4775 14.8327 15.5083 14.8693 15.5423C15.0778 15.7272 15.2569 15.9429 15.4003 16.1818C15.7324 16.7754 16.0202 17.3926 16.2614 18.0286C16.76 19.4322 17.1848 21.1474 17.1848 21.1474L18.4544 26.1522C19.3778 29.5549 20.1604 31.2078 20.1604 31.2078C22.088 35.6217 25.036 36.8637 25.036 36.8637C26.4712 37.6313 28.0673 38.0489 29.6946 38.0826C31.248 38.1248 32.7887 37.7931 34.1869 37.1153C35.72 36.3613 37.0649 35.2736 38.1229 33.9319C38.8362 33.1054 39.8866 31.0924 39.8866 31.0924C41.0448 28.7846 41.9541 26.3601 42.5991 23.8599C43.0112 22.3022 43.3418 20.7242 43.5895 19.1321C43.7141 18.3425 43.8318 17.5484 43.9265 16.752C44.0445 15.9978 44.0209 15.2283 43.8572 14.4827C43.8228 14.3487 43.7806 14.2169 43.7303 14.088C43.3593 13.1524 42.6714 12.377 41.7865 11.8972C41.1307 11.5485 40.3984 11.3685 39.6558 11.3732Z" fill="url(#paint29_radial_19536_1442)"/>
<path d="M39.6558 11.3732C39.2889 11.3724 38.9237 11.4181 38.5685 11.5094C39.3783 12.6795 40.0658 13.9296 40.6207 15.2399C40.8728 15.8035 41.0025 16.414 41.0016 17.0313C41.0005 17.6031 40.8867 18.169 40.6667 18.6968C40.4467 19.2245 40.1251 19.7038 39.7199 20.1073C39.3148 20.5107 38.8342 20.8304 38.3053 21.048C37.7766 21.2657 37.2104 21.3771 36.6385 21.3759C35.8657 21.3745 35.1071 21.1673 34.4408 20.7757L33.993 22.4309C33.1804 25.148 32.6079 26.1984 32.6079 26.1984C32.2926 26.935 31.9172 27.6446 31.486 28.3199C31.1882 28.7608 30.8073 29.2041 30.2855 29.3726C30.1041 29.4358 29.9102 29.4548 29.72 29.428C29.514 29.403 29.3153 29.3363 29.1359 29.2318C28.7929 28.9738 28.52 28.6341 28.3418 28.2437C28.1211 27.8103 27.923 27.3657 27.7485 26.9117C27.363 25.9745 26.7674 23.666 26.7674 23.666L26.151 21.249L25.5346 18.8135L25.096 17.2137C23.9418 13.0468 22.3443 10.9969 22.3443 10.9969C21.0887 9.2065 19.3098 7.84854 17.2517 7.10937C14.8647 6.25292 12.36 6.73539 12.36 6.73539C8.43553 7.50643 6.37404 10.1981 5.4668 11.4932C5.88203 11.6016 6.27937 11.7696 6.64644 11.9919C7.13765 12.2858 7.5622 12.679 7.89303 13.1461C8.48401 13.9864 8.6179 15.0322 8.73564 16.0317C8.98329 18.1981 9.41108 20.3402 10.0145 22.4355C11.3442 18.0263 12.9394 15.9717 12.9394 15.9717C13.1177 15.7503 13.3314 15.5599 13.572 15.4084C13.6972 15.3316 13.8372 15.282 13.9829 15.263C14.2529 15.2371 14.5237 15.3029 14.7516 15.45C14.7933 15.4775 14.8327 15.5083 14.8693 15.5423C15.0778 15.7272 15.2569 15.9429 15.4003 16.1818C15.7324 16.7754 16.0202 17.3926 16.2614 18.0286C16.76 19.4322 17.1848 21.1474 17.1848 21.1474L18.4544 26.1522C19.3778 29.5549 20.1604 31.2078 20.1604 31.2078C22.088 35.6217 25.036 36.8637 25.036 36.8637C26.4712 37.6313 28.0673 38.0489 29.6946 38.0826C31.248 38.1248 32.7887 37.7931 34.1869 37.1153C35.72 36.3613 37.0649 35.2736 38.1229 33.9319C38.8362 33.1054 39.8866 31.0924 39.8866 31.0924C41.0448 28.7846 41.9541 26.3601 42.5991 23.8599C43.0112 22.3022 43.3418 20.7242 43.5895 19.1321C43.7141 18.3425 43.8318 17.5484 43.9265 16.752C44.0445 15.9978 44.0209 15.2283 43.8572 14.4827C43.8228 14.3487 43.7806 14.2169 43.7303 14.088C43.3593 13.1524 42.6714 12.377 41.7865 11.8972C41.1307 11.5485 40.3984 11.3685 39.6558 11.3732Z" fill="url(#paint30_radial_19536_1442)"/>
<path d="M39.6558 11.3732C39.2889 11.3724 38.9237 11.4181 38.5685 11.5094C39.3783 12.6795 40.0658 13.9296 40.6207 15.2399C40.8728 15.8035 41.0025 16.414 41.0016 17.0313C41.0005 17.6031 40.8867 18.169 40.6667 18.6968C40.4467 19.2245 40.1251 19.7038 39.7199 20.1073C39.3148 20.5107 38.8342 20.8304 38.3053 21.048C37.7766 21.2657 37.2104 21.3771 36.6385 21.3759C35.8657 21.3745 35.1071 21.1673 34.4408 20.7757L33.993 22.4309C33.1804 25.148 32.6079 26.1984 32.6079 26.1984C32.2926 26.935 31.9172 27.6446 31.486 28.3199C31.1882 28.7608 30.8073 29.2041 30.2855 29.3726C30.1041 29.4358 29.9102 29.4548 29.72 29.428C29.514 29.403 29.3153 29.3363 29.1359 29.2318C28.7929 28.9738 28.52 28.6341 28.3418 28.2437C28.1211 27.8103 27.923 27.3657 27.7485 26.9117C27.363 25.9745 26.7674 23.666 26.7674 23.666L26.151 21.249L25.5346 18.8135L25.096 17.2137C23.9418 13.0468 22.3443 10.9969 22.3443 10.9969C21.0887 9.2065 19.3098 7.84854 17.2517 7.10937C14.8647 6.25292 12.36 6.73539 12.36 6.73539C8.43553 7.50643 6.37404 10.1981 5.4668 11.4932C5.88203 11.6016 6.27937 11.7696 6.64644 11.9919C7.13765 12.2858 7.5622 12.679 7.89303 13.1461C8.48401 13.9864 8.6179 15.0322 8.73564 16.0317C8.98329 18.1981 9.41108 20.3402 10.0145 22.4355C11.3442 18.0263 12.9394 15.9717 12.9394 15.9717C13.1177 15.7503 13.3314 15.5599 13.572 15.4084C13.6972 15.3316 13.8372 15.282 13.9829 15.263C14.2529 15.2371 14.5237 15.3029 14.7516 15.45C14.7933 15.4775 14.8327 15.5083 14.8693 15.5423C15.0778 15.7272 15.2569 15.9429 15.4003 16.1818C15.7324 16.7754 16.0202 17.3926 16.2614 18.0286C16.76 19.4322 17.1848 21.1474 17.1848 21.1474L18.4544 26.1522C19.3778 29.5549 20.1604 31.2078 20.1604 31.2078C22.088 35.6217 25.036 36.8637 25.036 36.8637C26.4712 37.6313 28.0673 38.0489 29.6946 38.0826C31.248 38.1248 32.7887 37.7931 34.1869 37.1153C35.72 36.3613 37.0649 35.2736 38.1229 33.9319C38.8362 33.1054 39.8866 31.0924 39.8866 31.0924C41.0448 28.7846 41.9541 26.3601 42.5991 23.8599C43.0112 22.3022 43.3418 20.7242 43.5895 19.1321C43.7141 18.3425 43.8318 17.5484 43.9265 16.752C44.0445 15.9978 44.0209 15.2283 43.8572 14.4827C43.8228 14.3487 43.7806 14.2169 43.7303 14.088C43.3593 13.1524 42.6714 12.377 41.7865 11.8972C41.1307 11.5485 40.3984 11.3685 39.6558 11.3732Z" fill="url(#paint31_radial_19536_1442)"/>
<path d="M39.6558 11.3732C39.2889 11.3724 38.9237 11.4181 38.5685 11.5094C39.3783 12.6795 40.0658 13.9296 40.6207 15.2399C40.8728 15.8035 41.0025 16.414 41.0016 17.0313C41.0005 17.6031 40.8867 18.169 40.6667 18.6968C40.4467 19.2245 40.1251 19.7038 39.7199 20.1073C39.3148 20.5107 38.8342 20.8304 38.3053 21.048C37.7766 21.2657 37.2104 21.3771 36.6385 21.3759C35.8657 21.3745 35.1071 21.1673 34.4408 20.7757L33.993 22.4309C33.1804 25.148 32.6079 26.1984 32.6079 26.1984C32.2926 26.935 31.9172 27.6446 31.486 28.3199C31.1882 28.7608 30.8073 29.2041 30.2855 29.3726C30.1041 29.4358 29.9102 29.4548 29.72 29.428C29.514 29.403 29.3153 29.3363 29.1359 29.2318C28.7929 28.9738 28.52 28.6341 28.3418 28.2437C28.1211 27.8103 27.923 27.3657 27.7485 26.9117C27.363 25.9745 26.7674 23.666 26.7674 23.666L26.151 21.249L25.5346 18.8135L25.096 17.2137C23.9418 13.0468 22.3443 10.9969 22.3443 10.9969C21.0887 9.2065 19.3098 7.84854 17.2517 7.10937C14.8647 6.25292 12.36 6.73539 12.36 6.73539C8.43553 7.50643 6.37404 10.1981 5.4668 11.4932C5.88203 11.6016 6.27937 11.7696 6.64644 11.9919C7.13765 12.2858 7.5622 12.679 7.89303 13.1461C8.48401 13.9864 8.6179 15.0322 8.73564 16.0317C8.98329 18.1981 9.41108 20.3402 10.0145 22.4355C11.3442 18.0263 12.9394 15.9717 12.9394 15.9717C13.1177 15.7503 13.3314 15.5599 13.572 15.4084C13.6972 15.3316 13.8372 15.282 13.9829 15.263C14.2529 15.2371 14.5237 15.3029 14.7516 15.45C14.7933 15.4775 14.8327 15.5083 14.8693 15.5423C15.0778 15.7272 15.2569 15.9429 15.4003 16.1818C15.7324 16.7754 16.0202 17.3926 16.2614 18.0286C16.76 19.4322 17.1848 21.1474 17.1848 21.1474L18.4544 26.1522C19.3778 29.5549 20.1604 31.2078 20.1604 31.2078C22.088 35.6217 25.036 36.8637 25.036 36.8637C26.4712 37.6313 28.0673 38.0489 29.6946 38.0826C31.248 38.1248 32.7887 37.7931 34.1869 37.1153C35.72 36.3613 37.0649 35.2736 38.1229 33.9319C38.8362 33.1054 39.8866 31.0924 39.8866 31.0924C41.0448 28.7846 41.9541 26.3601 42.5991 23.8599C43.0112 22.3022 43.3418 20.7242 43.5895 19.1321C43.7141 18.3425 43.8318 17.5484 43.9265 16.752C44.0445 15.9978 44.0209 15.2283 43.8572 14.4827C43.8228 14.3487 43.7806 14.2169 43.7303 14.088C43.3593 13.1524 42.6714 12.377 41.7865 11.8972C41.1307 11.5485 40.3984 11.3685 39.6558 11.3732Z" fill="url(#paint32_radial_19536_1442)"/>
<path d="M39.6558 11.3732C39.2889 11.3724 38.9237 11.4181 38.5685 11.5094C39.3783 12.6795 40.0658 13.9296 40.6207 15.2399C40.8728 15.8035 41.0025 16.414 41.0016 17.0313C41.0005 17.6031 40.8867 18.169 40.6667 18.6968C40.4467 19.2245 40.1251 19.7038 39.7199 20.1073C39.3148 20.5107 38.8342 20.8304 38.3053 21.048C37.7766 21.2657 37.2104 21.3771 36.6385 21.3759C35.8657 21.3745 35.1071 21.1673 34.4408 20.7757L33.993 22.4309C33.1804 25.148 32.6079 26.1984 32.6079 26.1984C32.2926 26.935 31.9172 27.6446 31.486 28.3199C31.1882 28.7608 30.8073 29.2041 30.2855 29.3726C30.1041 29.4358 29.9102 29.4548 29.72 29.428C29.514 29.403 29.3153 29.3363 29.1359 29.2318C28.7929 28.9738 28.52 28.6341 28.3418 28.2437C28.1211 27.8103 27.923 27.3657 27.7485 26.9117C27.363 25.9745 26.7674 23.666 26.7674 23.666L26.151 21.249L25.5346 18.8135L25.096 17.2137C23.9418 13.0468 22.3443 10.9969 22.3443 10.9969C21.0887 9.2065 19.3098 7.84854 17.2517 7.10937C14.8647 6.25292 12.36 6.73539 12.36 6.73539C8.43553 7.50643 6.37404 10.1981 5.4668 11.4932C5.88203 11.6016 6.27937 11.7696 6.64644 11.9919C7.13765 12.2858 7.5622 12.679 7.89303 13.1461C8.48401 13.9864 8.6179 15.0322 8.73564 16.0317C8.98329 18.1981 9.41108 20.3402 10.0145 22.4355C11.3442 18.0263 12.9394 15.9717 12.9394 15.9717C13.1177 15.7503 13.3314 15.5599 13.572 15.4084C13.6972 15.3316 13.8372 15.282 13.9829 15.263C14.2529 15.2371 14.5237 15.3029 14.7516 15.45C14.7933 15.4775 14.8327 15.5083 14.8693 15.5423C15.0778 15.7272 15.2569 15.9429 15.4003 16.1818C15.7324 16.7754 16.0202 17.3926 16.2614 18.0286C16.76 19.4322 17.1848 21.1474 17.1848 21.1474L18.4544 26.1522C19.3778 29.5549 20.1604 31.2078 20.1604 31.2078C22.088 35.6217 25.036 36.8637 25.036 36.8637C26.4712 37.6313 28.0673 38.0489 29.6946 38.0826C31.248 38.1248 32.7887 37.7931 34.1869 37.1153C35.72 36.3613 37.0649 35.2736 38.1229 33.9319C38.8362 33.1054 39.8866 31.0924 39.8866 31.0924C41.0448 28.7846 41.9541 26.3601 42.5991 23.8599C43.0112 22.3022 43.3418 20.7242 43.5895 19.1321C43.7141 18.3425 43.8318 17.5484 43.9265 16.752C44.0445 15.9978 44.0209 15.2283 43.8572 14.4827C43.8228 14.3487 43.7806 14.2169 43.7303 14.088C43.3593 13.1524 42.6714 12.377 41.7865 11.8972C41.1307 11.5485 40.3984 11.3685 39.6558 11.3732Z" fill="url(#paint33_radial_19536_1442)"/>
<path d="M39.6558 11.3732C39.2889 11.3724 38.9237 11.4181 38.5685 11.5094C39.3783 12.6795 40.0658 13.9296 40.6207 15.2399C40.8728 15.8035 41.0025 16.414 41.0016 17.0313C41.0005 17.6031 40.8867 18.169 40.6667 18.6968C40.4467 19.2245 40.1251 19.7038 39.7199 20.1073C39.3148 20.5107 38.8342 20.8304 38.3053 21.048C37.7766 21.2657 37.2104 21.3771 36.6385 21.3759C35.8657 21.3745 35.1071 21.1673 34.4408 20.7757L33.993 22.4309C33.1804 25.148 32.6079 26.1984 32.6079 26.1984C32.2926 26.935 31.9172 27.6446 31.486 28.3199C31.1882 28.7608 30.8073 29.2041 30.2855 29.3726C30.1041 29.4358 29.9102 29.4548 29.72 29.428C29.514 29.403 29.3153 29.3363 29.1359 29.2318C28.7929 28.9738 28.52 28.6341 28.3418 28.2437C28.1211 27.8103 27.923 27.3657 27.7485 26.9117C27.363 25.9745 26.7674 23.666 26.7674 23.666L26.151 21.249L25.5346 18.8135L25.096 17.2137C23.9418 13.0468 22.3443 10.9969 22.3443 10.9969C21.0887 9.2065 19.3098 7.84854 17.2517 7.10937C14.8647 6.25292 12.36 6.73539 12.36 6.73539C8.43553 7.50643 6.37404 10.1981 5.4668 11.4932C5.88203 11.6016 6.27937 11.7696 6.64644 11.9919C7.13765 12.2858 7.5622 12.679 7.89303 13.1461C8.48401 13.9864 8.6179 15.0322 8.73564 16.0317C8.98329 18.1981 9.41108 20.3402 10.0145 22.4355C11.3442 18.0263 12.9394 15.9717 12.9394 15.9717C13.1177 15.7503 13.3314 15.5599 13.572 15.4084C13.6972 15.3316 13.8372 15.282 13.9829 15.263C14.2529 15.2371 14.5237 15.3029 14.7516 15.45C14.7933 15.4775 14.8327 15.5083 14.8693 15.5423C15.0778 15.7272 15.2569 15.9429 15.4003 16.1818C15.7324 16.7754 16.0202 17.3926 16.2614 18.0286C16.76 19.4322 17.1848 21.1474 17.1848 21.1474L18.4544 26.1522C19.3778 29.5549 20.1604 31.2078 20.1604 31.2078C22.088 35.6217 25.036 36.8637 25.036 36.8637C26.4712 37.6313 28.0673 38.0489 29.6946 38.0826C31.248 38.1248 32.7887 37.7931 34.1869 37.1153C35.72 36.3613 37.0649 35.2736 38.1229 33.9319C38.8362 33.1054 39.8866 31.0924 39.8866 31.0924C41.0448 28.7846 41.9541 26.3601 42.5991 23.8599C43.0112 22.3022 43.3418 20.7242 43.5895 19.1321C43.7141 18.3425 43.8318 17.5484 43.9265 16.752C44.0445 15.9978 44.0209 15.2283 43.8572 14.4827C43.8228 14.3487 43.7806 14.2169 43.7303 14.088C43.3593 13.1524 42.6714 12.377 41.7865 11.8972C41.1307 11.5485 40.3984 11.3685 39.6558 11.3732Z" fill="url(#paint34_linear_19536_1442)"/>
<defs>
<linearGradient id="paint0_linear_19536_1442" x1="1.97146" y1="27.8675" x2="36.1927" y2="14.0349" gradientUnits="userSpaceOnUse">
<stop offset="0.13" stop-color="#1CBBF3"/>
<stop offset="0.34" stop-color="#1F99A5"/>
<stop offset="0.45" stop-color="#209CA6"/>
<stop offset="0.51" stop-color="#24A4AA"/>
<stop offset="0.57" stop-color="#2BB3B0"/>
<stop offset="0.6" stop-color="#30BDB4"/>
<stop offset="0.79" stop-color="#38BA90"/>
<stop offset="1" stop-color="#60F05A"/>
</linearGradient>
<radialGradient id="paint1_radial_19536_1442" cx="0" cy="0" r="1" gradientUnits="userSpaceOnUse" gradientTransform="translate(24.7522 19.7418) rotate(74.32) scale(16.3557 12.4304)">
<stop stop-color="#227B60"/>
<stop offset="0.14" stop-color="#227B60" stop-opacity="0.81"/>
<stop offset="0.58" stop-color="#227B60" stop-opacity="0.23"/>
<stop offset="0.78" stop-color="#227B60" stop-opacity="0"/>
</radialGradient>
<radialGradient id="paint2_radial_19536_1442" cx="0" cy="0" r="1" gradientUnits="userSpaceOnUse" gradientTransform="translate(27.1244 18.6053) rotate(91.1458) scale(11.0599 8.40441)">
<stop stop-color="#227B60"/>
<stop offset="0.25" stop-color="#227B60" stop-opacity="0.7"/>
<stop offset="0.71" stop-color="#227B60" stop-opacity="0.2"/>
<stop offset="0.92" stop-color="#227B60" stop-opacity="0"/>
</radialGradient>
<radialGradient id="paint3_radial_19536_1442" cx="0" cy="0" r="1" gradientUnits="userSpaceOnUse" gradientTransform="translate(26.6978 19.011) rotate(88.6) scale(10.3098 7.31994)">
<stop stop-color="#227B60"/>
<stop offset="0.07" stop-color="#227B60" stop-opacity="0.9"/>
<stop offset="0.34" stop-color="#227B60" stop-opacity="0.51"/>
<stop offset="0.59" stop-color="#227B60" stop-opacity="0.23"/>
<stop offset="0.79" stop-color="#227B60" stop-opacity="0.06"/>
<stop offset="0.92" stop-color="#227B60" stop-opacity="0"/>
</radialGradient>
<radialGradient id="paint4_radial_19536_1442" cx="0" cy="0" r="1" gradientUnits="userSpaceOnUse" gradientTransform="translate(26.8723 18.5411) rotate(88.6) scale(8.32446 5.91037)">
<stop stop-color="#227B60"/>
<stop offset="0.36" stop-color="#227B60" stop-opacity="0.63"/>
<stop offset="0.92" stop-color="#227B60" stop-opacity="0"/>
</radialGradient>
<radialGradient id="paint5_radial_19536_1442" cx="0" cy="0" r="1" gradientUnits="userSpaceOnUse" gradientTransform="translate(27.2354 19.009) rotate(88.6) scale(6.63926 4.24912)">
<stop stop-color="#20735A"/>
<stop offset="0.15" stop-color="#20745A" stop-opacity="0.93"/>
<stop offset="0.38" stop-color="#21755C" stop-opacity="0.74"/>
<stop offset="0.67" stop-color="#21785D" stop-opacity="0.43"/>
<stop offset="1" stop-color="#227B60" stop-opacity="0"/>
</radialGradient>
<radialGradient id="paint6_radial_19536_1442" cx="0" cy="0" r="1" gradientUnits="userSpaceOnUse" gradientTransform="translate(28.1249 20.068) rotate(23.8) scale(10.6838 8.01282)">
<stop stop-color="#227A61"/>
<stop offset="0.36" stop-color="#227A61" stop-opacity="0.56"/>
<stop offset="0.72" stop-color="#227A61" stop-opacity="0.16"/>
<stop offset="0.9" stop-color="#227A61" stop-opacity="0"/>
</radialGradient>
<radialGradient id="paint7_radial_19536_1442" cx="0" cy="0" r="1" gradientUnits="userSpaceOnUse" gradientTransform="translate(25.2933 3.37495) rotate(35.2724) scale(14.248 13.0277)">
<stop stop-color="#3CD9C3"/>
<stop offset="0.07" stop-color="#3BD7C1" stop-opacity="0.9"/>
<stop offset="0.41" stop-color="#38CEB9" stop-opacity="0.42"/>
<stop offset="0.65" stop-color="#36C8B4" stop-opacity="0.12"/>
<stop offset="0.76" stop-color="#35C6B2" stop-opacity="0"/>
</radialGradient>
<radialGradient id="paint8_radial_19536_1442" cx="0" cy="0" r="1" gradientUnits="userSpaceOnUse" gradientTransform="translate(12376.3 -6462.71) rotate(35.2724) scale(2530.6 1776.35)">
<stop stop-color="#3CD9C3"/>
<stop offset="0.07" stop-color="#3BD7C1" stop-opacity="0.9"/>
<stop offset="0.41" stop-color="#38CEB9" stop-opacity="0.42"/>
<stop offset="0.65" stop-color="#36C8B4" stop-opacity="0.12"/>
<stop offset="0.76" stop-color="#35C6B2" stop-opacity="0"/>
</radialGradient>
<radialGradient id="paint9_radial_19536_1442" cx="0" cy="0" r="1" gradientUnits="userSpaceOnUse" gradientTransform="translate(30.9683 22.5275) rotate(100.972) scale(12.5662 15.5284)">
<stop stop-color="#237F66" stop-opacity="0.8"/>
<stop offset="0.06" stop-color="#2C8C70" stop-opacity="0.65"/>
<stop offset="0.21" stop-color="#3DA785" stop-opacity="0.37"/>
<stop offset="0.35" stop-color="#4ABA93" stop-opacity="0.17"/>
<stop offset="0.47" stop-color="#51C59C" stop-opacity="0.04"/>
<stop offset="0.56" stop-color="#54C99F" stop-opacity="0"/>
</radialGradient>
<radialGradient id="paint10_radial_19536_1442" cx="0" cy="0" r="1" gradientUnits="userSpaceOnUse" gradientTransform="translate(23.1852 23.4217) rotate(-50.82) scale(16.4204 17.734)">
<stop stop-color="#167C8A"/>
<stop offset="0.04" stop-color="#167C8A" stop-opacity="0.93"/>
<stop offset="0.33" stop-color="#177F8D" stop-opacity="0.43"/>
<stop offset="0.54" stop-color="#17818F" stop-opacity="0.12"/>
<stop offset="0.65" stop-color="#178290" stop-opacity="0"/>
</radialGradient>
<radialGradient id="paint11_radial_19536_1442" cx="0" cy="0" r="1" gradientUnits="userSpaceOnUse" gradientTransform="translate(22.2001 25.0805) rotate(-31.66) scale(16.0187 12.6548)">
<stop offset="0.05" stop-color="#177D87"/>
<stop offset="0.11" stop-color="#177E89" stop-opacity="0.8"/>
<stop offset="0.21" stop-color="#177F8B" stop-opacity="0.52"/>
<stop offset="0.32" stop-color="#17818D" stop-opacity="0.29"/>
<stop offset="0.42" stop-color="#17818F" stop-opacity="0.13"/>
<stop offset="0.51" stop-color="#178290" stop-opacity="0.03"/>
<stop offset="0.6" stop-color="#178290" stop-opacity="0"/>
</radialGradient>
<radialGradient id="paint12_radial_19536_1442" cx="0" cy="0" r="1" gradientUnits="userSpaceOnUse" gradientTransform="translate(18.25 25.3567) rotate(-130.539) scale(9.54384 7.51501)">
<stop offset="0.26" stop-color="#177F8A"/>
<stop offset="0.27" stop-color="#177F8A" stop-opacity="0.98"/>
<stop offset="0.38" stop-color="#17808C" stop-opacity="0.68"/>
<stop offset="0.5" stop-color="#17818D" stop-opacity="0.43"/>
<stop offset="0.62" stop-color="#17818F" stop-opacity="0.24"/>
<stop offset="0.74" stop-color="#17828F" stop-opacity="0.11"/>
<stop offset="0.86" stop-color="#178290" stop-opacity="0.03"/>
<stop offset="1" stop-color="#178290" stop-opacity="0"/>
</radialGradient>
<radialGradient id="paint13_radial_19536_1442" cx="0" cy="0" r="1" gradientUnits="userSpaceOnUse" gradientTransform="translate(16.5199 27.7027) rotate(-173.11) scale(8.95238)">
<stop stop-color="#13656E"/>
<stop offset="0.11" stop-color="#13646E" stop-opacity="0.73"/>
<stop offset="0.27" stop-color="#12646E" stop-opacity="0.41"/>
<stop offset="0.42" stop-color="#12636E" stop-opacity="0.18"/>
<stop offset="0.55" stop-color="#12636E" stop-opacity="0.05"/>
<stop offset="0.66" stop-color="#12636E" stop-opacity="0"/>
</radialGradient>
<radialGradient id="paint14_radial_19536_1442" cx="0" cy="0" r="1" gradientUnits="userSpaceOnUse" gradientTransform="translate(16.285 29.0359) rotate(-119.32) scale(6.26066 5.25896)">
<stop offset="0.13" stop-color="#146A73"/>
<stop offset="0.24" stop-color="#156F79" stop-opacity="0.79"/>
<stop offset="0.45" stop-color="#167783" stop-opacity="0.45"/>
<stop offset="0.65" stop-color="#167D8A" stop-opacity="0.2"/>
<stop offset="0.82" stop-color="#17818E" stop-opacity="0.05"/>
<stop offset="0.95" stop-color="#178290" stop-opacity="0"/>
</radialGradient>
<radialGradient id="paint15_radial_19536_1442" cx="0" cy="0" r="1" gradientUnits="userSpaceOnUse" gradientTransform="translate(15.7972 26.4265) rotate(-55.9925) scale(5.88941 4.66572)">
<stop stop-color="#198E9C"/>
<stop offset="0.1" stop-color="#198E9C" stop-opacity="0.87"/>
<stop offset="0.41" stop-color="#198E9C" stop-opacity="0.5"/>
<stop offset="0.67" stop-color="#198E9C" stop-opacity="0.23"/>
<stop offset="0.88" stop-color="#198E9C" stop-opacity="0.06"/>
<stop offset="1" stop-color="#198E9C" stop-opacity="0"/>
</radialGradient>
<linearGradient id="paint16_linear_19536_1442" x1="4.1761" y1="5.8836" x2="19.2737" y2="19.857" gradientUnits="userSpaceOnUse">
<stop offset="0.13" stop-color="#2BF9FF"/>
<stop offset="0.27" stop-color="#29F9FF" stop-opacity="0.64"/>
<stop offset="0.4" stop-color="#27FAFF" stop-opacity="0.3"/>
<stop offset="0.49" stop-color="#26FAFF" stop-opacity="0.08"/>
<stop offset="0.54" stop-color="#26FAFF" stop-opacity="0"/>
</linearGradient>
<linearGradient id="paint17_linear_19536_1442" x1="-4.3746" y1="28.687" x2="13.2623" y2="23.6868" gradientUnits="userSpaceOnUse">
<stop stop-color="#26FAFF"/>
<stop offset="0.06" stop-color="#26FAFF" stop-opacity="0.88"/>
<stop offset="0.24" stop-color="#26FAFF" stop-opacity="0.51"/>
<stop offset="0.39" stop-color="#26FAFF" stop-opacity="0.23"/>
<stop offset="0.5" stop-color="#26FAFF" stop-opacity="0.06"/>
<stop offset="0.55" stop-color="#26FAFF" stop-opacity="0"/>
</linearGradient>
<linearGradient id="paint18_linear_19536_1442" x1="0.297797" y1="28.0729" x2="20.1763" y2="20.9881" gradientUnits="userSpaceOnUse">
<stop stop-color="#21DEFF"/>
<stop offset="0.04" stop-color="#21DEFF" stop-opacity="0.88"/>
<stop offset="0.17" stop-color="#21DEFF" stop-opacity="0.51"/>
<stop offset="0.27" stop-color="#21DEFF" stop-opacity="0.23"/>
<stop offset="0.34" stop-color="#21DEFF" stop-opacity="0.06"/>
<stop offset="0.38" stop-color="#21DEFF" stop-opacity="0"/>
</linearGradient>
<linearGradient id="paint19_linear_19536_1442" x1="19.186" y1="17.8186" x2="30.3037" y2="35.9518" gradientUnits="userSpaceOnUse">
<stop offset="0.62" stop-color="#21DEFF" stop-opacity="0"/>
<stop offset="0.66" stop-color="#21DEFF" stop-opacity="0.06"/>
<stop offset="0.73" stop-color="#21DEFF" stop-opacity="0.23"/>
<stop offset="0.83" stop-color="#21DEFF" stop-opacity="0.51"/>
<stop offset="0.96" stop-color="#21DEFF" stop-opacity="0.88"/>
<stop offset="1" stop-color="#21DEFF"/>
</linearGradient>
<linearGradient id="paint20_linear_19536_1442" x1="31.5597" y1="24.594" x2="29.8098" y2="16.0641" gradientUnits="userSpaceOnUse">
<stop stop-color="#44B044"/>
<stop offset="0.11" stop-color="#44B044" stop-opacity="0.8"/>
<stop offset="0.27" stop-color="#44B044" stop-opacity="0.52"/>
<stop offset="0.43" stop-color="#44B044" stop-opacity="0.29"/>
<stop offset="0.58" stop-color="#44B044" stop-opacity="0.13"/>
<stop offset="0.7" stop-color="#44B044" stop-opacity="0.03"/>
<stop offset="0.8" stop-color="#44B044" stop-opacity="0"/>
</linearGradient>
<linearGradient id="paint21_linear_19536_1442" x1="7.16124" y1="15.7524" x2="43.9657" y2="27.9367" gradientUnits="userSpaceOnUse">
<stop stop-color="#3066FB"/>
<stop offset="0.38" stop-color="#2F64F7"/>
<stop offset="0.74" stop-color="#2857D9"/>
<stop offset="1" stop-color="#3C7EFF"/>
</linearGradient>
<radialGradient id="paint22_radial_19536_1442" cx="0" cy="0" r="1" gradientUnits="userSpaceOnUse" gradientTransform="translate(33.1419 21.3134) rotate(98.69) scale(19.6823 12.9903)">
<stop stop-color="#1A3D9C"/>
<stop offset="0.4" stop-color="#1A3D9C" stop-opacity="0.42"/>
<stop offset="0.7" stop-color="#1A3D9C" stop-opacity="0"/>
</radialGradient>
<radialGradient id="paint23_radial_19536_1442" cx="0" cy="0" r="1" gradientUnits="userSpaceOnUse" gradientTransform="translate(5790.41 9584.12) rotate(98.69) scale(2421.07 1305.66)">
<stop stop-color="#1A3D9C"/>
<stop offset="0.4" stop-color="#1A3D9C" stop-opacity="0.42"/>
<stop offset="0.7" stop-color="#1A3D9C" stop-opacity="0"/>
</radialGradient>
<radialGradient id="paint24_radial_19536_1442" cx="0" cy="0" r="1" gradientUnits="userSpaceOnUse" gradientTransform="translate(4374.28 9165.8) rotate(98.6156) scale(2883.34 1191.4)">
<stop stop-color="#1A3D9C"/>
<stop offset="0.4" stop-color="#1A3D9C" stop-opacity="0.42"/>
<stop offset="0.7" stop-color="#1A3D9C" stop-opacity="0"/>
</radialGradient>
<radialGradient id="paint25_radial_19536_1442" cx="0" cy="0" r="1" gradientUnits="userSpaceOnUse" gradientTransform="translate(30.0101 19.9878) rotate(83.0888) scale(17.2039 12.0038)">
<stop stop-color="#1A3D9C"/>
<stop offset="0.16" stop-color="#1A3D9C" stop-opacity="0.69"/>
<stop offset="0.33" stop-color="#1A3D9C" stop-opacity="0.4"/>
<stop offset="0.49" stop-color="#1A3D9C" stop-opacity="0.18"/>
<stop offset="0.61" stop-color="#1A3D9C" stop-opacity="0.05"/>
<stop offset="0.7" stop-color="#1A3D9C" stop-opacity="0"/>
</radialGradient>
<radialGradient id="paint26_radial_19536_1442" cx="0" cy="0" r="1" gradientUnits="userSpaceOnUse" gradientTransform="translate(33.8007 23.2094) rotate(74.64) scale(16.5335 11.2428)">
<stop stop-color="#18388F"/>
<stop offset="0.37" stop-color="#193B96" stop-opacity="0.45"/>
<stop offset="0.7" stop-color="#1A3D9C" stop-opacity="0"/>
</radialGradient>
<radialGradient id="paint27_radial_19536_1442" cx="0" cy="0" r="1" gradientUnits="userSpaceOnUse" gradientTransform="translate(32.1538 27.6161) rotate(74.64) scale(7.68732 7.30295)">
<stop stop-color="#18388F"/>
<stop offset="0.09" stop-color="#183992" stop-opacity="0.78"/>
<stop offset="0.22" stop-color="#193B96" stop-opacity="0.5"/>
<stop offset="0.35" stop-color="#193C98" stop-opacity="0.28"/>
<stop offset="0.47" stop-color="#1A3C9A" stop-opacity="0.13"/>
<stop offset="0.59" stop-color="#1A3D9C" stop-opacity="0.03"/>
<stop offset="0.7" stop-color="#1A3D9C" stop-opacity="0"/>
</radialGradient>
<radialGradient id="paint28_radial_19536_1442" cx="0" cy="0" r="1" gradientUnits="userSpaceOnUse" gradientTransform="translate(32.3383 28.9275) rotate(74.64) scale(7.68732 7.30295)">
<stop stop-color="#1A3D9C" stop-opacity="0.8"/>
<stop offset="0.01" stop-color="#1A3D9C" stop-opacity="0.78"/>
<stop offset="0.24" stop-color="#1A3D9C" stop-opacity="0.45"/>
<stop offset="0.44" stop-color="#1A3D9C" stop-opacity="0.2"/>
<stop offset="0.6" stop-color="#1A3D9C" stop-opacity="0.05"/>
<stop offset="0.7" stop-color="#1A3D9C" stop-opacity="0"/>
</radialGradient>
<radialGradient id="paint29_radial_19536_1442" cx="0" cy="0" r="1" gradientUnits="userSpaceOnUse" gradientTransform="translate(12.4453 24.3993) rotate(67.0273) scale(18.3458 12.1741)">
<stop stop-color="#1A3D9C"/>
<stop offset="0.4" stop-color="#1A3D9C" stop-opacity="0.56"/>
<stop offset="0.48" stop-color="#1A3D9C" stop-opacity="0.43"/>
<stop offset="0.69" stop-color="#1A3D9C" stop-opacity="0.12"/>
<stop offset="0.79" stop-color="#1A3D9C" stop-opacity="0"/>
</radialGradient>
<radialGradient id="paint30_radial_19536_1442" cx="0" cy="0" r="1" gradientUnits="userSpaceOnUse" gradientTransform="translate(11.2712 20.1004) rotate(76.1028) scale(13.6076 8.98364)">
<stop stop-color="#1A3D9C"/>
<stop offset="0.06" stop-color="#1A3D9C" stop-opacity="0.88"/>
<stop offset="0.21" stop-color="#1A3D9C" stop-opacity="0.61"/>
<stop offset="0.36" stop-color="#1A3D9C" stop-opacity="0.39"/>
<stop offset="0.51" stop-color="#1A3D9C" stop-opacity="0.22"/>
<stop offset="0.67" stop-color="#1A3D9C" stop-opacity="0.1"/>
<stop offset="0.83" stop-color="#1A3D9C" stop-opacity="0.02"/>
<stop offset="1" stop-color="#1A3D9C" stop-opacity="0"/>
</radialGradient>
<radialGradient id="paint31_radial_19536_1442" cx="0" cy="0" r="1" gradientUnits="userSpaceOnUse" gradientTransform="translate(11.2712 20.1004) rotate(76.1028) scale(13.6076 8.98364)">
<stop stop-color="#1B3E9E"/>
<stop offset="0.06" stop-color="#1B3E9E" stop-opacity="0.87"/>
<stop offset="0.21" stop-color="#1B3E9D" stop-opacity="0.61"/>
<stop offset="0.36" stop-color="#1A3D9D" stop-opacity="0.39"/>
<stop offset="0.52" stop-color="#1A3D9C" stop-opacity="0.22"/>
<stop offset="0.67" stop-color="#1A3D9C" stop-opacity="0.1"/>
<stop offset="0.83" stop-color="#1A3D9C" stop-opacity="0.02"/>
<stop offset="1" stop-color="#1A3D9C" stop-opacity="0"/>
</radialGradient>
<radialGradient id="paint32_radial_19536_1442" cx="0" cy="0" r="1" gradientUnits="userSpaceOnUse" gradientTransform="translate(11.7872 18.7738) rotate(76.1028) scale(10.4105 6.87288)">
<stop stop-color="#183991"/>
<stop offset="0.03" stop-color="#183992" stop-opacity="0.95"/>
<stop offset="0.18" stop-color="#193A95" stop-opacity="0.66"/>
<stop offset="0.34" stop-color="#193B97" stop-opacity="0.42"/>
<stop offset="0.5" stop-color="#1A3C99" stop-opacity="0.24"/>
<stop offset="0.66" stop-color="#1A3D9B" stop-opacity="0.1"/>
<stop offset="0.82" stop-color="#1A3D9C" stop-opacity="0.03"/>
<stop offset="1" stop-color="#1A3D9C" stop-opacity="0"/>
</radialGradient>
<radialGradient id="paint33_radial_19536_1442" cx="0" cy="0" r="1" gradientUnits="userSpaceOnUse" gradientTransform="translate(13.7368 20.1478) rotate(87.1376) scale(8.22624 7.24155)">
<stop offset="0.04" stop-color="#2453D6" stop-opacity="0.6"/>
<stop offset="0.2" stop-color="#2453D6" stop-opacity="0.49"/>
<stop offset="0.52" stop-color="#2453D6" stop-opacity="0.2"/>
<stop offset="0.73" stop-color="#2453D6" stop-opacity="0"/>
</radialGradient>
<linearGradient id="paint34_linear_19536_1442" x1="31.0751" y1="0.724044" x2="21.7787" y2="23.7029" gradientUnits="userSpaceOnUse">
<stop stop-color="#3774FF"/>
<stop offset="0.05" stop-color="#3774FF" stop-opacity="0.91"/>
<stop offset="0.16" stop-color="#3774FF" stop-opacity="0.66"/>
<stop offset="0.32" stop-color="#3774FF" stop-opacity="0.28"/>
<stop offset="0.43" stop-color="#3774FF" stop-opacity="0"/>
</linearGradient>
</defs>
</svg>
